<?xml version="1.0" encoding="utf-8"?>
<!-- Generator: Adobe Illustrator 17.1.0, SVG Export Plug-In . SVG Version: 6.00 Build 0)  -->
<!DOCTYPE svg PUBLIC "-//W3C//DTD SVG 1.1//EN" "http://www.w3.org/Graphics/SVG/1.1/DTD/svg11.dtd">
<svg version="1.1" id="Capa_1" xmlns="http://www.w3.org/2000/svg" xmlns:xlink="http://www.w3.org/1999/xlink" x="0px" y="0px"
	 viewBox="0 0 255.1 141.7" enable-background="new 0 0 255.1 141.7" xml:space="preserve">
<g>
	<g id="banknote">
		<path fill="#010002" d="M195.8,46.9L151.5,2.6c-2.2-2.2-5.4-3.1-8.4-2.3c-1.6,0.4-3,1.2-4.1,2.3c-1,1-1.8,2.2-2.2,3.6
			c-2,6.5-5.5,12.2-10.6,17.3c-6.9,6.9-15.8,12-25.2,17.5c-10,5.8-20.4,11.8-28.9,20.3C64.9,68.6,60,76.6,57.1,86
			c-1,3.1-0.1,6.6,2.2,8.9l44.3,44.3c2.2,2.2,5.4,3.1,8.4,2.3c1.6-0.4,3-1.2,4.1-2.3c1-1,1.8-2.2,2.2-3.6c2-6.5,5.5-12.2,10.6-17.3
			c6.9-6.9,15.8-12,25.2-17.5c10-5.8,20.4-11.8,28.9-20.3c7.2-7.2,12.1-15.3,15-24.6C199,52.6,198.1,49.2,195.8,46.9z M109.8,132.9
			c-14.7-14.7-29.6-29.6-44.3-44.3c12.6-40.8,67.1-39,79.7-79.7c14.7,14.7,29.6,29.6,44.3,44.3C177,93.9,122.4,92.1,109.8,132.9z"/>
		<path fill="#010002" d="M143.3,66c-1.4-1.2-2.9-2-4.4-2.4c-1.5-0.4-2.9-0.6-4.4-0.5c-1.5,0.1-2.9,0.4-4.4,1
			c-1.5,0.6-3,1.2-4.5,1.9c-2.4-2.7-4.8-5.4-7.1-7.9c1.1-1,2.1-1.5,3.1-1.5c1,0,2,0.1,2.9,0.3c0.9,0.2,1.8,0.4,2.6,0.6
			c0.8,0.2,1.5,0,2.1-0.5c0.6-0.6,1-1.3,1-2.1c0-0.9-0.3-1.7-1-2.6c-0.9-1.1-2.1-1.7-3.4-2c-1.3-0.2-2.7-0.2-4.1,0.1
			c-1.4,0.3-2.7,0.8-4,1.6c-1.3,0.7-2.3,1.5-3,2.2c-0.3-0.3-0.6-0.5-0.9-0.8c-0.3-0.3-0.7-0.5-1.2-0.4c-0.5,0-0.9,0.2-1.2,0.6
			c-0.3,0.4-0.5,0.8-0.4,1.3c0,0.5,0.2,0.8,0.6,1.1c0.3,0.2,0.6,0.5,0.9,0.7c-1.1,1.4-2.1,2.9-2.8,4.5c-0.7,1.6-1.2,3.2-1.4,4.7
			c-0.2,1.6,0,3,0.5,4.3c0.5,1.3,1.4,2.4,2.6,3.5c2.1,1.7,4.5,2.5,7.4,2.3c2.8-0.2,5.9-1,9.2-2.8c2.6,3,5.2,6,7.9,8.8
			c-1.1,0.9-2.1,1.5-2.9,1.6c-0.9,0.2-1.6,0.2-2.3,0c-0.7-0.2-1.3-0.5-1.9-0.9c-0.6-0.4-1.2-0.8-1.7-1c-0.6-0.3-1.2-0.4-1.8-0.5
			c-0.6,0-1.2,0.3-2,0.9c-0.7,0.6-1.1,1.4-1.1,2.2c0,0.8,0.4,1.7,1.1,2.5c0.8,0.8,1.7,1.6,2.9,2.1c1.2,0.6,2.5,0.9,4,1
			c1.5,0.1,3-0.1,4.7-0.7c1.6-0.6,3.3-1.7,4.9-3.3c0.8,0.8,1.6,1.5,2.3,2.2c0.3,0.3,0.7,0.4,1.2,0.4c0.5,0,0.9-0.2,1.2-0.6
			c0.3-0.4,0.5-0.8,0.4-1.3c0-0.5-0.2-0.8-0.6-1.1c-0.8-0.6-1.6-1.3-2.3-2c1.3-1.6,2.4-3.3,3.2-5c0.8-1.7,1.3-3.3,1.4-4.9
			c0.2-1.5,0-2.9-0.5-4.2C145.5,68.1,144.6,67,143.3,66z M118.6,69c-1.3,0.1-2.3-0.4-3.3-1.3c-0.4-0.4-0.7-0.9-0.9-1.4
			c-0.2-0.6-0.2-1.2-0.2-1.9c0.1-0.7,0.3-1.4,0.6-2.1c0.3-0.7,0.8-1.4,1.4-2.1c2.2,2.2,4.5,4.7,6.7,7.2
			C121.3,68.4,119.8,68.9,118.6,69z M139.5,77.9c-0.4,0.7-0.9,1.4-1.4,2c-2.5-2.5-5-5.3-7.4-8.1c0.6-0.3,1.3-0.6,2-0.9
			c0.7-0.3,1.4-0.5,2.2-0.6c0.7-0.1,1.5-0.1,2.2,0.1c0.7,0.2,1.4,0.6,2,1.2c0.6,0.6,1,1.3,1.2,2c0.2,0.7,0.2,1.4,0.1,2.2
			C140.1,76.4,139.9,77.1,139.5,77.9z"/>
		<path fill="#010002" d="M121.9,98.2L121.9,98.2c-2.8,2.1-5.5,4.4-8,6.9c-2.4,2.4-4.6,4.9-6.5,7.5l-3,4.1l0,0
			c-0.6,0.9-0.5,2,0.3,2.8c0.9,0.9,2.3,0.9,3.1,0c0.1-0.1,0.2-0.3,0.3-0.4l2.8-3.9c1.8-2.4,3.8-4.8,6-7c2.5-2.5,4.8-4.4,7.6-6.5l0,0
			c0.1-0.1,0.2-0.1,0.2-0.2c0.9-0.9,0.9-2.3,0-3.1C124,97.6,122.7,97.5,121.9,98.2z"/>
		<path fill="#010002" d="M138.1,34.2c-2.3,2.3-4.8,4.4-7.4,6.4c-0.2,0.1-0.4,0.2-0.5,0.4c-0.9,0.9-0.9,2.3,0,3.2
			c0.8,0.9,2.2,0.9,3.1,0.1l0,0c2.8-2.1,5.5-4.4,8-6.9c2.4-2.4,4.6-4.9,6.5-7.5l3-4.2l0,0c0.8-0.9,0.7-2.2-0.1-3
			c-0.9-0.9-2.3-0.9-3.2,0c-0.2,0.2-0.3,0.4-0.4,0.5l-2.9,4C142.4,29.6,140.3,31.9,138.1,34.2z"/>
	</g>
</g>
</svg>
