<?xml version="1.0" encoding="utf-8"?>
<!-- Generator: Adobe Illustrator 17.1.0, SVG Export Plug-In . SVG Version: 6.00 Build 0)  -->
<!DOCTYPE svg PUBLIC "-//W3C//DTD SVG 1.1//EN" "http://www.w3.org/Graphics/SVG/1.1/DTD/svg11.dtd">
<svg version="1.1" id="Capa_1" xmlns="http://www.w3.org/2000/svg" xmlns:xlink="http://www.w3.org/1999/xlink" x="0px" y="0px"
	 viewBox="0 0 255.1 141.7" enable-background="new 0 0 255.1 141.7" xml:space="preserve">
<g>
	<g id="search_1_">
		<path fill="#010002" d="M145.3,0c-29.4,0-53.1,23.8-53.1,53.1c0,9,2.2,17.4,6.2,24.8l-37,36.9l0,0c-2.9,2.8-4.7,6.8-4.7,11.1
			c0,8.6,7,15.6,15.6,15.6c4.4,0,8.3-1.8,11.1-4.7l0,0l36.9-36.9c7.4,3.9,15.9,6.2,24.9,6.2c29.4,0,53.1-23.8,53.1-53.1
			S174.6,0,145.3,0z M77.9,131.5c-1.4,1.5-3.4,2.4-5.6,2.4c-4.3,0-7.8-3.5-7.8-7.8c0-2.2,0.9-4.2,2.4-5.6l0,0l35.7-35.7
			c3.1,4.2,6.8,7.9,11,11.1L77.9,131.5z M145.3,97.4c-24.5,0-44.3-19.8-44.3-44.3c0-24.5,19.8-44.3,44.3-44.3
			c24.5,0,44.3,19.8,44.3,44.3C189.6,77.6,169.7,97.4,145.3,97.4z"/>
		<path fill="#010002" d="M145.3,22.1c-17.1,0-31,13.9-31,31c0,1.2,1,2.2,2.2,2.2s2.2-1,2.2-2.2c0-14.7,11.9-26.6,26.6-26.6
			c1.2,0,2.2-1,2.2-2.2C147.5,23.1,146.5,22.1,145.3,22.1z"/>
	</g>
</g>
</svg>
