<?xml version="1.0" encoding="utf-8"?>
<!-- Generator: Adobe Illustrator 17.1.0, SVG Export Plug-In . SVG Version: 6.00 Build 0)  -->
<!DOCTYPE svg PUBLIC "-//W3C//DTD SVG 1.1//EN" "http://www.w3.org/Graphics/SVG/1.1/DTD/svg11.dtd">
<svg version="1.1" id="Capa_1" xmlns="http://www.w3.org/2000/svg" xmlns:xlink="http://www.w3.org/1999/xlink" x="0px" y="0px"
	 viewBox="0 0 255.1 141.7" enable-background="new 0 0 255.1 141.7" xml:space="preserve">
<g>
	<g id="truck_1_">
		<path fill="#010002" d="M166.7,50.7c-0.8-1.2-2.2-2-3.7-2h-4.4c-2.4,0-4.4,2-4.4,4.4v26.6c0,2.4,2,4.4,4.4,4.4h17.7
			c2.4,0,4.4-2,4.4-4.4v-6.6c0-0.9-0.3-1.7-0.7-2.5L166.7,50.7z M176.3,79.7h-17.7V53.1h4.4l13.3,19.9V79.7z"/>
		<path fill="#010002" d="M196.2,67.9l-17.7-26.6c-2.5-3.7-6.6-5.9-11.1-5.9h-17.7v-8.9c0-7.3-6-13.3-13.3-13.3H70
			c-7.3,0-13.3,6-13.3,13.3v48.7c0,7.3,6,13.3,13.3,13.3l0,0v13.3c0,7.3,6,13.3,13.3,13.3h5.1c2,7.6,8.9,13.3,17.1,13.3
			c8.2,0,15.1-5.7,17.1-13.3h23.4c2,7.6,8.9,13.3,17.1,13.3c8.2,0,15.1-5.7,17.1-13.3h5.1c7.3,0,13.3-6,13.3-13.3V75.3
			C198.4,72.7,197.7,70.1,196.2,67.9z M70,79.7c-2.4,0-4.4-2-4.4-4.4V26.6c0-2.4,2-4.4,4.4-4.4h66.4c2.4,0,4.4,2,4.4,4.4v8.9v8.9v31
			c0,2.4-2,4.4-4.4,4.4H70z M105.4,119.6c-4.9,0-8.9-4-8.9-8.9c0-4.9,4-8.9,8.9-8.9c4.9,0,8.9,4,8.9,8.9
			C114.3,115.6,110.3,119.6,105.4,119.6z M163,119.6c-4.9,0-8.9-4-8.9-8.9c0-4.9,4-8.9,8.9-8.9c4.9,0,8.9,4,8.9,8.9
			C171.9,115.6,167.9,119.6,163,119.6z M189.6,101.9c0,2.4-2,4.4-4.4,4.4h-5.1c-2-7.6-8.9-13.3-17.1-13.3c-8.2,0-15.1,5.7-17.1,13.3
			h-23.4c-2-7.6-8.9-13.3-17.1-13.3c-8.2,0-15.1,5.7-17.1,13.3h-5.1c-2.4,0-4.4-2-4.4-4.4V88.6h57.6c7.3,0,13.3-6,13.3-13.3v-31
			h17.7c1.5,0,2.9,0.7,3.7,2l17.7,26.6c0.5,0.7,0.7,1.6,0.7,2.5V101.9z"/>
	</g>
</g>
</svg>
