<?xml version="1.0" encoding="utf-8"?>
<svg xmlns="http://www.w3.org/2000/svg" xmlns:boxy="http://www.boxy-svg.com/boxyNS" version="1.1" id="Слой_1" x="0px" y="0px" width="50" height="50" enable-background="new 0 0 50 50" xml:space="preserve" boxy:zoom="987" boxy:scrollX="-26" boxy:scrollY="-1" viewBox="15.55 11.24 18.88 27.66">
  <defs/>
  <path fill="#E4C59A" d="M26.107,38.456c-0.392,0.118-0.784,0.451-1.117,0.451c-3.881-0.02-8.33-5.018-8.33-11.133  s3.724-11.113,8.33-11.113c0.392,0,0.725,0.059,1.117,0.118V38.456z"/>
  <path fill="#FADBB0" d="M25.01,38.887c3.881,0,8.33-4.998,8.33-11.113S29.616,16.66,25.01,16.66v7.781c0,0-0.843,3.881-1.666,4.998  c0,0-0.549,1.117,0.549,1.117c1.117,0,1.117,0,1.117,0S25.01,38.887,25.01,38.887z"/>
  <g>
    <circle fill="#616D6F" cx="21.678" cy="25.833" r="0.549"/>
    <circle fill="#616D6F" cx="28.342" cy="25.833" r="0.549"/>
  </g>
  <path fill="#050606" d="M27.773,32.497c0,1.215-1.215,2.215-2.783,2.215s-2.783-1-2.783-2.215H27.773z"/>
  <path d="M33.163,23.951l-1.607-0.059c-0.608-0.549-1.509-0.549-2.666-0.549c-0.059,0-0.118,0-0.176,0c-1.842,0-2.548,0-2.881,0.549  h-1.607c-0.333-0.549-1.117-0.549-2.881-0.549c-0.059,0-0.118,0-0.176,0c-1.176,0-2.058,0-2.666,0.549h-1.666v1.117h1.117  c-0.059,0.333-0.118,0.666-0.118,1.117c0,1.666,1.117,2.783,3.332,2.783c1.666,0,3.332-1.666,3.332-2.783c0-0.451,0-0.784,0-1.117  h1.058c0,0.333,0,0.666,0,1.117c0,1.117,1.666,2.783,3.332,2.783c2.215,0,3.332-1.117,3.332-2.783c0-0.451-0.059-0.784-0.118-1.117  h1.058V23.951z M23.011,27.499c-0.549,0.51-1.274,0.843-1.882,0.843c-1.274,0-2.783-0.392-2.783-2.215  c0-2.215,0.843-2.215,2.783-2.215h0.176c1.176,0,2.117,0,2.391,0.216c0.216,0.176,0.216,0.941,0.216,1.999  C23.893,26.441,23.618,27.009,23.011,27.499z M28.891,28.342c-0.608,0-1.333-0.333-1.882-0.843c-0.608-0.51-0.882-1.058-0.882-1.392  c0-1.058,0-1.842,0.216-1.999c0.216-0.216,1.215-0.216,2.391-0.216h0.176c1.94,0,2.783,0,2.783,2.215  C31.674,27.95,30.165,28.342,28.891,28.342z"/>
  <path fill="#904F3A" d="M16.719,26.735c1.117-11.113,15.445-11.172,16.621,0v-7.33l-1.117-1.196c0,0,0.059-1.392-2.43-4.292  l-1.45-0.549c0,0-0.549,1.117-1.117,0l-0.059-0.745c-0.216-0.51-0.549,0.137-2.783,0.137s-6.605,2.293-6.605,6.135  c0,1.274-1.117,0-1.117,0L16.719,26.735z"/>
  <path fill="#F7E37C" d="M16.405,21.776c8.487,1.235,17.287-0.098,17.287-0.098s0.608-9.839-8.742-9.839S16.405,21.776,16.405,21.776  z"/>
  <path fill="#F7E37C" d="M24.951,11.838c9.349,0,8.683,9.859,8.683,9.859s-3.724,0.549-8.683,0.608V11.838z"/>
  <path fill="#E0C553" d="M24.402,22.227l-1.019-10.643c0,0,1.705-0.764,3.469,0l-1,10.643"/>
  <path fill="#E0C553" d="M25.01,23.109c-4.9,0-8.585-0.647-8.82-0.686c-0.431-0.078-0.706-0.49-0.627-0.902  c0.078-0.431,0.49-0.706,0.902-0.627c0.078,0.02,8.722,1.529,17.033-0.098c0.431-0.078,0.843,0.196,0.921,0.627  s-0.196,0.843-0.627,0.921C30.753,22.913,27.695,23.109,25.01,23.109z"/>
</svg>