<svg xmlns="http://www.w3.org/2000/svg" width="121.5" height="36" viewBox="0 0 121.5 36"><defs><style>.cls-1{fill:#353231;fill-rule:evenodd}</style></defs><path id="Шторы" class="cls-1" d="M27.494 27L33.224.07H28.04l-5.187 24.25H18.28L23.468.07H18.28l-5.185 24.25H8.88L14.067.07c-.234-.03-.466-.04-.694-.06S12.894 0 12.625 0A13.016 13.016 0 0 0 9.6.36a15.705 15.705 0 0 0-2.917 1 15.43 15.43 0 0 0-2.628 1.52A12.06 12.06 0 0 0 1.937 4.8 8.958 8.958 0 0 0 .522 6.99a5.75 5.75 0 0 0-.518 2.36A4.846 4.846 0 0 0 .25 11a2.416 2.416 0 0 0 .738 1.07 3.038 3.038 0 0 0 1.213.59 6.815 6.815 0 0 0 1.653.19.518.518 0 0 0-.08-.25 2.948 2.948 0 0 1-.175-.4 3.907 3.907 0 0 1-.175-.68 6.415 6.415 0 0 1-.08-1.12 8.63 8.63 0 0 1 1.328-4.89 8.108 8.108 0 0 1 3.718-3L3.168 27h24.328zm33.546-6.45q-.282.69-.57 1.29a5.154 5.154 0 0 1-.643 1.01 2.558 2.558 0 0 1-.79.65 2.208 2.208 0 0 1-1.02.23 1.3 1.3 0 0 1-1.134-.43 1.782 1.782 0 0 1-.308-1.08 6.322 6.322 0 0 1 .132-1.19q.132-.675.316-1.47t.413-1.65c.153-.58.29-1.15.414-1.73s.228-1.15.316-1.71a9.87 9.87 0 0 0 .132-1.55 5.147 5.147 0 0 0-.3-1.85 3.3 3.3 0 0 0-.835-1.27 3.523 3.523 0 0 0-1.266-.72 5.37 5.37 0 0 0-1.59-.22 6.294 6.294 0 0 0-1.09.1 4.757 4.757 0 0 0-1.248.42 5.856 5.856 0 0 0-1.337.93 7.826 7.826 0 0 0-1.336 1.6 4.318 4.318 0 0 0-.475-1.43 3.28 3.28 0 0 0-.808-.96 3.136 3.136 0 0 0-1.09-.53 5.08 5.08 0 0 0-1.32-.17 7.172 7.172 0 0 0-1 .08 4.736 4.736 0 0 0-1.088.3 6.1 6.1 0 0 0-1.143.61 6.883 6.883 0 0 0-1.16 1.05L41.6 9h-5.186L32.6 27h5.18l2.444-11.55a10.456 10.456 0 0 1 .493-1.3 5.453 5.453 0 0 1 .64-1.08 3.056 3.056 0 0 1 .81-.72 1.944 1.944 0 0 1 .975-.26.917.917 0 0 1 .52.13 1.15 1.15 0 0 1 .333.35 1.612 1.612 0 0 1 .185.5 3.31 3.31 0 0 1 .052.6 3.7 3.7 0 0 1-.105.9L41.49 27h5.19l2.444-11.55a9.88 9.88 0 0 1 .492-1.29 5.26 5.26 0 0 1 .633-1.06 2.9 2.9 0 0 1 .772-.71 1.656 1.656 0 0 1 .915-.26c.867 0 1.3.61 1.3 1.84a10.088 10.088 0 0 1-.255 2.06c-.17.79-.354 1.62-.553 2.48s-.385 1.69-.555 2.5a10.714 10.714 0 0 0-.255 2.14 5.192 5.192 0 0 0 .22 1.5 3.486 3.486 0 0 0 .712 1.3 3.37 3.37 0 0 0 1.3.91 5.1 5.1 0 0 0 2 .35 6.62 6.62 0 0 0 1.574-.21 4.75 4.75 0 0 0 1.74-.91 8.316 8.316 0 0 0 1.758-2.01 15.85 15.85 0 0 0 1.626-3.53h-1.512zm21.716-8.21c-.387.27-.815.53-1.283.8a13.222 13.222 0 0 1-1.442.69 10.72 10.72 0 0 1-1.466.48 5.282 5.282 0 0 1-1.363.19h-.22a.355.355 0 0 1-.166-.04v-.03q0-5.745-4.623-5.75a7.816 7.816 0 0 0-3.287.66 9.02 9.02 0 0 0-2.54 1.73 10.822 10.822 0 0 0-1.863 2.44 16.157 16.157 0 0 0-1.248 2.78 17.324 17.324 0 0 0-.7 2.77 15.187 15.187 0 0 0-.22 2.4 7.127 7.127 0 0 0 .43 2.63 4.507 4.507 0 0 0 1.2 1.75 4.636 4.636 0 0 0 1.83.99 8.486 8.486 0 0 0 2.31.31 6.707 6.707 0 0 0 3.13-.76 8.077 8.077 0 0 0 2.62-2.16 12.148 12.148 0 0 0 1.89-3.41 17.022 17.022 0 0 0 .957-4.5 14.04 14.04 0 0 0 3.655-1.11 8.71 8.71 0 0 0 2.724-1.88zm-9.694 7.03a12.786 12.786 0 0 1-.993 2.37 5.865 5.865 0 0 1-1.223 1.58 1.985 1.985 0 0 1-1.31.58 2.684 2.684 0 0 1-.86-.12 1.1 1.1 0 0 1-.572-.45 2.276 2.276 0 0 1-.317-.89 8.933 8.933 0 0 1-.1-1.46 12.735 12.735 0 0 1 .175-1.99 19.73 19.73 0 0 1 .493-2.22 18.466 18.466 0 0 1 .764-2.19 12 12 0 0 1 .985-1.89 5.863 5.863 0 0 1 1.133-1.33 1.944 1.944 0 0 1 1.248-.5 1.516 1.516 0 0 1 .607.1.976.976 0 0 1 .4.37 2.007 2.007 0 0 1 .246.65 6.075 6.075 0 0 1 .122.97 1.84 1.84 0 0 0-.817.71 2.3 2.3 0 0 0-.308 1.24 2.124 2.124 0 0 0 .2.96 1.053 1.053 0 0 0 .764.55 17.663 17.663 0 0 1-.638 2.96zm9.543 15.33l1.863-8.78a2.79 2.79 0 0 0 .4.49 2.212 2.212 0 0 0 .6.41 3.56 3.56 0 0 0 .87.28 5.966 5.966 0 0 0 1.2.11 7.345 7.345 0 0 0 3.085-.61 7.53 7.53 0 0 0 2.33-1.61 9.2 9.2 0 0 0 1.642-2.31 15.5 15.5 0 0 0 1.064-2.72 18.2 18.2 0 0 0 .57-2.83 22.7 22.7 0 0 0 .167-2.63 9.06 9.06 0 0 0-.343-2.69 4.693 4.693 0 0 0-.93-1.75 3.35 3.35 0 0 0-1.4-.95A5.144 5.144 0 0 0 92 8.82a6.05 6.05 0 0 0-2.39.44 7.006 7.006 0 0 0-1.81 1.11l.58-2.71h-5.2L77.17 36zm4.57-21.52a3.867 3.867 0 0 1 1.187-1.33 2.348 2.348 0 0 1 1.292-.45 2.5 2.5 0 0 1 .562.08 1.25 1.25 0 0 1 .59.38 2.458 2.458 0 0 1 .465.9 5.482 5.482 0 0 1 .194 1.63 17.382 17.382 0 0 1-.114 1.89 18.13 18.13 0 0 1-.36 2.12 15.97 15.97 0 0 1-.633 2.09 8.18 8.18 0 0 1-.95 1.82 4.7 4.7 0 0 1-1.3 1.28 2.957 2.957 0 0 1-1.687.49 1.437 1.437 0 0 1-.94-.27 1.254 1.254 0 0 1-.43-.56zm27.025 7.37c-.094.45-.164.88-.21 1.27a9.08 9.08 0 0 0-.072 1.08 6.333 6.333 0 0 0 .264 1.95 3.672 3.672 0 0 0 .738 1.34 2.837 2.837 0 0 0 1.117.77 3.694 3.694 0 0 0 1.38.25 4.728 4.728 0 0 0 1.388-.22 3.6 3.6 0 0 0 1.23-.68 3.684 3.684 0 0 0 .906-1.15 4.256 4.256 0 0 0 .432-1.66 3.88 3.88 0 0 1-.422.16 3.1 3.1 0 0 1-.74.07 1.787 1.787 0 0 1-1.115-.29 1.3 1.3 0 0 1-.36-1.05 4.706 4.706 0 0 1 .158-1.16L121.513 9h-2.232c-.867.45-1.666.9-2.4 1.34s-1.458.88-2.178 1.31-1.457.86-2.206 1.27-1.57.83-2.46 1.23a4.913 4.913 0 0 0-1.478-.21 3 3 0 0 0-.73.09 2.093 2.093 0 0 0-.65.31 1.592 1.592 0 0 0-.466.52 1.44 1.44 0 0 0-.175.73 1.522 1.522 0 0 0 .15.71 1.524 1.524 0 0 0 .887.75 1.76 1.76 0 0 0 .545.08 1.9 1.9 0 0 0 .58-.09 2.137 2.137 0 0 0 .473-.24 1.65 1.65 0 0 1 .4.58 2.15 2.15 0 0 1 .132.79 8.21 8.21 0 0 1-.325 2.34 7.04 7.04 0 0 1-.862 1.9 4.45 4.45 0 0 1-1.23 1.27 2.55 2.55 0 0 1-1.433.47 1.37 1.37 0 0 1-1.617-1.48c0-.13 0-.29.01-.49a1.448 1.448 0 0 1 .1-.51L107.017 9h-4.973l-2.373 11.55q-.107.555-.176 1.08a7.166 7.166 0 0 0-.07.97 4.337 4.337 0 0 0 1.335 3.39 5.478 5.478 0 0 0 3.816 1.22 7.738 7.738 0 0 0 4.6-1.44 7.9 7.9 0 0 0 1.538-1.5 9.452 9.452 0 0 0 1.08-1.75 8.487 8.487 0 0 0 .634-1.8 7.624 7.624 0 0 0 .2-1.65 6.563 6.563 0 0 0-.862-3.59q1.056-.555 2.057-1.14c.668-.39 1.33-.78 1.986-1.2z"/></svg>