<?xml version="1.0" encoding="utf-8"?>
<!-- Generator: Adobe Illustrator 17.1.0, SVG Export Plug-In . SVG Version: 6.00 Build 0)  -->
<!DOCTYPE svg PUBLIC "-//W3C//DTD SVG 1.1//EN" "http://www.w3.org/Graphics/SVG/1.1/DTD/svg11.dtd">
<svg version="1.1" id="Слой_1" xmlns="http://www.w3.org/2000/svg" xmlns:xlink="http://www.w3.org/1999/xlink" x="0px" y="0px"
	 viewBox="0 0 120 120" enable-background="new 0 0 120 120" xml:space="preserve">
<circle id="BG_WHITE_CIRCLE" fill="#FFFFFF" cx="60" cy="60" r="60"/>
<radialGradient id="SVGID_1_" cx="60" cy="60" r="50" gradientUnits="userSpaceOnUse">
	<stop  offset="0" style="stop-color:#EFEFEF"/>
	<stop  offset="0.6146" style="stop-color:#EDEDED"/>
	<stop  offset="0.8358" style="stop-color:#E6E6E5"/>
	<stop  offset="0.993" style="stop-color:#D9DADA"/>
	<stop  offset="1" style="stop-color:#D9D9D9"/>
</radialGradient>
<circle fill="url(#SVGID_1_)" cx="60" cy="60" r="50"/>
<g id="С_прозрачностью">
	<path fill="#C25546" d="M63.9,72.3c-0.2-0.4-0.2-0.8-0.1-1.2c0.5-2,2.3-4.1,4.1-6c-1.3-0.8-2.3-1.9-3-3.1c-1.5,0-2.5,0.7-3.4,1.2
		c-0.3,0.2-0.6,0.4-0.9,0.5c-0.2,0.1-0.4,0.2-0.7,0.3c-0.9,0.5-2.3,1.2-3.7,1.2c-0.1,0-0.3,0-0.4,0c-0.5,0.8-1,1.8-1.1,3
		c0,0.8,0.1,1,0.2,1.1c0,0,0.1,0.1,0.2,0.1c0.1,0,0.3,0,0.4-0.1c0.2,0,0.3-0.1,0.5-0.1c0.3,0,0.8,0.1,0.9,0.9c0.1,0.9,0,1.6-0.2,2.2
		H63.9z"/>
	<path fill="#C5D455" d="M55.8,72.6c0.2-0.4,0.5-1.3,0.3-2.3c0-0.3-0.1-0.3-0.2-0.3c-0.1,0-0.2,0-0.4,0.1c-0.4,0.1-1,0.1-1.2-0.2
		C54.1,69.5,54,69,54,68.2c0.1-1.3,0.5-2.3,1-3.2c-0.7-0.3-1.3-0.8-1.7-1.5c-0.2-0.3-0.4-0.6-0.6-0.8c-0.7,0.3-1.5,0.4-2.2,0.4
		c0,0,0,0,0,0c-1,0-1.9-0.2-2.6-0.4l-0.6,1.2c1.3,0.5,3.2,1.5,4.2,3.3c0.6,1,0.9,2.1,0.8,3.4L55.8,72.6z"/>
	<path fill="#B47B94" d="M60.3,63c0.2-0.1,0.5-0.3,0.8-0.5c0.8-0.5,1.9-1.1,3.4-1.3c-0.3-0.5-0.5-1.1-0.7-1.6c-2.3-0.4-4.5-1.3-6-2
		c-0.4,0.8-1.1,1.4-2,1.5c-0.6,1.6-1.5,2.6-2.5,3.2c0.2,0.2,0.4,0.5,0.6,0.8c0.6,0.9,1.3,1.4,2.3,1.4c1.2,0,2.4-0.7,3.4-1.1
		C59.9,63.2,60.1,63.1,60.3,63z"/>
	<path fill="#96C4DD" d="M69.3,73.2c3.9,0,8.8-0.8,10.4-1.1l-4.4-7.2c-0.5,0.7-1.5,1.1-2.9,1.2c-0.3,0-0.5,0-0.7,0c0,0,0,0,0,0
		c-1.2,0-2.3-0.2-3.2-0.6c-1.8,1.8-3.6,4-4.1,5.8c-0.1,0.3-0.1,0.6,0.1,0.8C65,72.6,66.1,73.2,69.3,73.2z"/>
	<path fill="#F1E081" d="M45.9,64.2l-4.2,8c1,0.3,3.8,1.1,6.2,1.1c2,0,3.1-0.5,3.4-1.6c0.4-1.5,0.3-2.9-0.4-4.1
		C49.6,65.3,46.8,64.4,45.9,64.2z"/>
	<path fill="#C5D455" d="M71.8,65.4C71.8,65.4,71.8,65.4,71.8,65.4c0.2,0,0.4,0,0.7,0c1.4-0.1,2.3-0.5,2.6-1.3
		c0.6-1.8-1.8-5.1-3.9-7.4c-0.5,1.3-1.4,2.3-2.7,2.8c-0.8,0.3-1.6,0.4-2.5,0.4c-0.4,0-0.8,0-1.2-0.1c0.1,0.4,0.3,0.8,0.5,1.1
		C66.6,63.9,68.8,65.4,71.8,65.4z"/>
	<path fill="#F1E081" d="M68.2,49.5c-1.6,1.6-4.9,4.3-9.4,4.7c-0.1,0.8-0.3,1.9-0.6,2.8c2.5,1.1,7.1,2.9,10,1.8
		c1.1-0.4,1.9-1.2,2.3-2.5c0.6-1.8,0.3-3.9-0.3-5.6l0.2,2l-0.7,0.1C69.4,51.7,68.8,50.6,68.2,49.5z"/>
	<path fill="#96C4DD" d="M50.9,53.3C50.9,53.3,50.8,53.3,50.9,53.3l-3.3,8.5c0.5,0.2,1.7,0.6,2.9,0.6c0,0,0,0,0,0
		c2.2,0,3.7-1.1,4.5-3.2c-0.1,0-0.2,0-0.3-0.1C52.1,58.3,51,53.9,50.9,53.3z"/>
	<path fill="#C5D455" d="M65.3,45.9c-1.2-1.2-2.3-2.2-3.3-3c0,0-0.1,0-0.1,0c0,0,0,0,0,0c-1.2,0-2.4-0.5-3.5-1.2
		c-0.4,0.9-0.6,1.9-0.4,3c0.2,1.2-0.2,2.3-0.8,3.3C59.8,46.9,62.9,46,65.3,45.9z"/>
	<path fill="#C25546" d="M51.7,52.3C51.6,52.3,51.6,52.3,51.7,52.3l0,0.7c0.1,0.4,1.1,4.7,3.3,5.3c0.3,0.1,0.5,0.1,0.7,0.1
		c1.6,0,2.1-2.3,2.4-4.8c0.1-1.1-1.1-2.5-2.6-3.8c-0.8,0.7-1.7,1.3-2.3,1.7c-0.3,0.2-0.7,0.5-0.8,0.6c-0.1,0.2-0.2,0.2-0.3,0.2h-0.2
		L51.7,52.3z"/>
	<path fill="#B47B94" d="M58.8,53.5c4.3-0.5,7.5-3.2,9-4.6c-0.5-0.8-1.1-1.5-1.7-2.2c-0.2,0-0.3,0-0.5,0c-2.6,0-6.3,1.3-9.3,2.5
		c-0.1,0.1-0.2,0.2-0.2,0.3C57.4,50.6,58.7,52.1,58.8,53.5z"/>
	<path fill="#96C4DD" d="M69.1,46.8l-0.6-6.3L66,40.7c-1,1.1-2,1.7-3.1,2c1.7,1.4,3.7,3.3,5.3,5.6c0.1-0.1,0.1-0.2,0.2-0.2l-0.2-1
		c0.1,0.1,0.3,0.3,0.4,0.4c0.3,0.4,0.4,0.6,0.6,0.8c-0.2-0.4-0.4-0.7-0.5-0.9l-0.1-0.4l0.1,0.1L69.1,46.8z"/>
	<path fill="#F1E081" d="M52.7,51c1.6-1.1,5-3.4,4.5-6.2c-0.2-1.2,0.1-2.5,0.5-3.5c-1.3-1-2.4-2.3-3.3-3.4c-0.4,0.2-0.6,0.3-0.7,0.3
		l-0.2,0.1c-0.5,5.3-1,11-1.2,13.1C52.4,51.2,52.6,51.1,52.7,51z"/>
	<path fill="#B47B94" d="M62.3,30.9c-0.1,0-0.2,0-0.3,0c-0.3,0-0.6,0.1-0.7,0.2c-0.1,0.1-0.2,0.4-0.2,0.7c0.5,5.8,3.6,7.3,5.3,7.7
		c0.1-0.2,0.3-0.4,0.4-0.6h0.4v-0.7c0.1,0,0.2,0.1,0.4,0.1v-0.8v-3.5v-0.9v-0.4c0,0-3.3-2-5.3-2.2C62.3,30.7,62.3,30.8,62.3,30.9z"
		/>
	<path fill="#C5D455" d="M57.9,30.1c-1.5,0-3.3,0.5-3.9,0.7v6.4c1.5-0.7,6-2.8,6.1-5.6c0-0.5-0.1-0.8-0.3-1
		C59.4,30.2,58.8,30.1,57.9,30.1z"/>
	<path fill="#C25546" d="M55.1,37.5c1.6,2,4.1,4.6,6.7,4.6c0,0,0,0,0,0c1.3,0,2.6-0.7,3.7-2c-0.5-0.2-1-0.4-1.5-0.8
		c-1.9-1.3-3.1-3.4-3.5-6.3C59.6,35.1,56.8,36.7,55.1,37.5z"/>
	<path fill="#363433" d="M82.6,70.5c-0.1-0.1-13.5-12-13.5-40.7c0-1-0.8-1.9-1.9-1.9h-8.6h-0.7h-4.1c-1,0-1.9,0.8-1.9,1.9
		c0,28.6-13.4,40.5-13.5,40.7c-1,1-0.9,1.7-0.5,3.2c0,0.1,1.2,4.9,1.4,11.8c0,0.8,0.7,1.5,1.5,1.5h0.8h0.7H43h0.7
		c0.9,0,1.5-0.7,1.5-1.6c-0.3-5.8-2.3-10.7-3.4-12.9c3.7-3.5,13.2-15.9,13.7-40.7h2.3h0.7h6.8c0.5,24.8,10,37.2,13.7,40.7
		c-1.1,2.3-3,7.1-3.4,12.9c0,0.9,0.6,1.6,1.5,1.6h3c0.8,0,1.5-0.7,1.5-1.5c0.2-6.9,1.3-11.8,1.4-11.8C83.5,72.2,83.6,71.5,82.6,70.5
		z"/>
	<g>
		<path fill="#363433" d="M62.7,71.1h-4c-0.6,0-1.2-0.4-1.4-0.9l-1.8-4.5c-0.4-1,0.3-2.1,1.4-2.1h7.6c1.1,0,1.8,1.1,1.4,2.1
			l-1.8,4.5C63.9,70.8,63.4,71.1,62.7,71.1z"/>
	</g>
	<rect x="41.2" y="70.5" fill="#363433" width="39.1" height="3.7"/>
	<g>
		<path fill="#363433" d="M59.8,59.3c0.5,1.8,0.1,3.4-0.2,3.5c-0.3,0.1-1.5-1.2-2-2.9c-0.5-1.8-0.1-3.4,0.2-3.5
			C58.2,56.3,59.3,57.5,59.8,59.3z"/>
	</g>
	<g>
		<path fill="#363433" d="M64.9,58c-0.7,2.6-2.7,5.1-3.3,4.9c-0.8-0.2-1.1-3.3-0.4-5.9c0.7-2.6,2.6-5.1,3.3-4.9
			C65.2,52.3,65.6,55.4,64.9,58z"/>
	</g>
</g>
<path opacity="0.3" fill="#FFFFFF" d="M110,60C90.3,20.2,30,20,10,60c0-27.6,22.4-50,50-50S110,32.4,110,60z"/>
</svg>
