<?xml version="1.0" encoding="utf-8"?>
<!-- Generator: Adobe Illustrator 17.1.0, SVG Export Plug-In . SVG Version: 6.00 Build 0)  -->
<!DOCTYPE svg PUBLIC "-//W3C//DTD SVG 1.1//EN" "http://www.w3.org/Graphics/SVG/1.1/DTD/svg11.dtd">
<svg version="1.1" id="Layer_1" xmlns="http://www.w3.org/2000/svg" xmlns:xlink="http://www.w3.org/1999/xlink" x="0px" y="0px"
	 viewBox="0 0 296 222" enable-background="new 0 0 296 222" xml:space="preserve">
<g>
	
		<rect x="135.1" y="55.1" transform="matrix(0.7071 -0.7071 0.7071 0.7071 -35.2232 140.6656)" fill="#CE6E63" width="34.2" height="115.5"/>
	<polygon fill="#E3D0C1" points="99.2,84.1 60.2,20.9 123.5,59.9 	"/>
	<polygon fill="#262626" points="70.1,37 76.3,30.8 60.2,20.9 	"/>
	<polyline opacity="0.1" fill="#000100" points="60.5,21 193.1,153.6 205.2,141.5 123.5,59.8 	"/>
	
		<rect x="143.9" y="55.2" transform="matrix(0.7071 -0.7071 0.7071 0.7071 -35.2813 140.6415)" fill="#B95445" width="16.5" height="115.5"/>
	<g>
		<path fill="#DCDCDC" d="M242.6,178.9c2.3,2.3,2.5,5.7,0.6,7.6L226,203.7c-1.9,1.9-5.3,1.7-7.6-0.6l-1.6-1.6
			c-2.3-2.3-2.5-5.7-0.6-7.6l17.2-17.2c1.9-1.9,5.3-1.7,7.6,0.6L242.6,178.9z"/>
		
			<rect x="194.7" y="145.9" transform="matrix(0.7071 -0.7071 0.7071 0.7071 -59.8745 200.2844)" fill="#EADD83" width="34.2" height="53.1"/>
		
			<rect x="176.5" y="153.4" transform="matrix(0.7071 -0.7071 0.7071 0.7071 -52.2249 181.9809)" opacity="0.1" fill="#000100" width="34.1" height="1.3"/>
		
			<rect x="181.2" y="158" transform="matrix(0.7071 -0.7071 0.7071 0.7071 -54.1477 186.6229)" opacity="0.1" fill="#000100" width="34.1" height="1.3"/>
		
			<rect x="183.1" y="160" transform="matrix(0.7071 -0.7071 0.7071 0.7071 -54.9677 188.6026)" opacity="0.1" fill="#000100" width="34.1" height="1.3"/>
		
			<rect x="185.6" y="162.5" transform="matrix(0.7071 -0.7071 0.7071 0.7071 -55.9853 191.0592)" opacity="0.1" fill="#000100" width="34.1" height="1.3"/>
		
			<rect x="187.8" y="164.7" transform="matrix(0.7071 -0.7071 0.7071 0.7071 -56.8905 193.2446)" opacity="0.1" fill="#000100" width="34.1" height="1.3"/>
		
			<rect x="194.6" y="183.2" transform="matrix(-0.7071 -0.7071 0.7071 -0.7071 211.3409 454.945)" opacity="0.1" fill="#000100" width="10.7" height="1.1"/>
		
			<rect x="196.3" y="181.5" transform="matrix(-0.7071 -0.7071 0.7071 -0.7071 215.4359 453.2488)" opacity="0.1" fill="#000100" width="10.7" height="1.1"/>
		
			<rect x="198.4" y="179.4" transform="matrix(-0.7071 -0.7071 0.7071 -0.7071 220.5183 451.1436)" opacity="0.1" fill="#000100" width="10.7" height="1.1"/>
		
			<rect x="200.2" y="177.5" transform="matrix(-0.7071 -0.7071 0.7071 -0.7071 225.037 449.2719)" opacity="0.1" fill="#000100" width="10.7" height="1.1"/>
		
			<rect x="202.3" y="175.4" transform="matrix(-0.7071 -0.7071 0.7071 -0.7071 230.1207 447.1661)" opacity="0.1" fill="#000100" width="10.7" height="1.1"/>
		
			<rect x="201.3" y="178.2" transform="matrix(0.7071 -0.7071 0.7071 0.7071 -62.4885 206.7594)" opacity="0.1" fill="#000100" width="34.1" height="1.3"/>
		
			<rect x="203.8" y="180.6" transform="matrix(0.7071 -0.7071 0.7071 0.7071 -63.5061 209.216)" opacity="0.1" fill="#000100" width="34.1" height="1.3"/>
		
			<rect x="205.9" y="182.8" transform="matrix(0.7071 -0.7071 0.7071 0.7071 -64.411 211.4008)" opacity="0.1" fill="#000100" width="34.1" height="1.3"/>
		
			<rect x="208.4" y="185.3" transform="matrix(0.7071 -0.7071 0.7071 0.7071 -65.4288 213.858)" opacity="0.1" fill="#000100" width="34.1" height="1.3"/>
		
			<rect x="204.4" y="173.3" transform="matrix(-0.7071 -0.7071 0.7071 -0.7071 235.0643 445.1184)" opacity="0.1" fill="#000100" width="10.7" height="1.1"/>
		
			<rect x="206.1" y="171.6" transform="matrix(-0.7071 -0.7071 0.7071 -0.7071 239.158 443.4228)" opacity="0.1" fill="#000100" width="10.7" height="1.1"/>
		
			<rect x="208.2" y="169.5" transform="matrix(-0.7071 -0.7071 0.7071 -0.7071 244.2417 441.317)" opacity="0.1" fill="#000100" width="10.7" height="1.1"/>
		
			<rect x="210.1" y="167.7" transform="matrix(-0.7071 -0.7071 0.7071 -0.7071 248.7591 439.4459)" opacity="0.1" fill="#000100" width="10.7" height="1.1"/>
		
			<rect x="212.2" y="165.6" transform="matrix(-0.7071 -0.7071 0.7071 -0.7071 253.8428 437.3401)" opacity="0.1" fill="#000100" width="10.7" height="1.1"/>
		
			<rect x="214.1" y="163.6" transform="matrix(-0.7071 -0.7071 0.7071 -0.7071 258.5732 435.3807)" opacity="0.1" fill="#000100" width="10.7" height="1.1"/>
		
			<rect x="215.8" y="161.9" transform="matrix(-0.7071 -0.7071 0.7071 -0.7071 262.6654 433.6857)" opacity="0.1" fill="#000100" width="10.7" height="1.1"/>
		
			<rect x="217.9" y="159.8" transform="matrix(-0.7071 -0.7071 0.7071 -0.7071 267.7493 431.5799)" opacity="0.1" fill="#000100" width="10.7" height="1.1"/>
		
			<rect x="216.2" y="137" transform="matrix(0.7071 -0.7071 0.7071 0.7071 -50.8983 203.9234)" opacity="2.000000e-02" fill="#0F1010" width="8.9" height="52.9"/>
		
			<rect x="198.5" y="154.9" transform="matrix(0.7071 -0.7071 0.7071 0.7071 -68.8239 196.4984)" opacity="0.1" fill="#FFFFFF" width="8.5" height="52.9"/>
	</g>
	<polyline opacity="0.2" fill="#7E7E7E" points="70.1,37 76.3,30.8 83.9,35.5 116.2,67.5 106.9,76.7 75.2,45 	"/>
	<polyline opacity="5.000000e-02" fill="#000100" points="117.3,66.4 123.6,60.1 107.1,49.8 	"/>
</g>
<g>
	<path fill="#EADD83" d="M213.6,22.6L61.9,174.3L92,204.4L243.7,52.7L213.6,22.6z M210.4,54c-2.6-2.6-2.6-6.8,0-9.4
		c2.6-2.6,6.8-2.6,9.4,0c2.6,2.6,2.6,6.8,0,9.4C217.2,56.6,213,56.6,210.4,54z"/>
	
		<rect x="89.2" y="188.6" transform="matrix(-0.7071 -0.7071 0.7071 -0.7071 31.2437 391.2412)" fill="#272727" width="15" height="1"/>
	
		<rect x="99.4" y="178.4" transform="matrix(-0.7071 -0.7071 0.7071 -0.7071 55.9967 380.9881)" fill="#272727" width="15" height="1"/>
	<path fill="#AB8E3F" d="M111.5,184.9"/>
	
		<rect x="109.9" y="167.9" transform="matrix(-0.7071 -0.7071 0.7071 -0.7071 81.265 370.5217)" fill="#272727" width="15" height="1"/>
	
		<rect x="120.1" y="157.7" transform="matrix(-0.7071 -0.7071 0.7071 -0.7071 106.0181 360.2687)" fill="#272727" width="15" height="1"/>
	
		<rect x="130.5" y="147.3" transform="matrix(-0.7071 -0.7071 0.7071 -0.7071 131.1095 349.8754)" fill="#272727" width="15" height="1"/>
	
		<rect x="140.8" y="137" transform="matrix(-0.7071 -0.7071 0.7071 -0.7071 155.8625 339.6224)" fill="#272727" width="15" height="1"/>
	<path fill="#AB8E3F" d="M152.9,143.5"/>
	
		<rect x="151.2" y="126.6" transform="matrix(-0.7071 -0.7071 0.7071 -0.7071 181.1308 329.156)" fill="#272727" width="15" height="1"/>
	
		<rect x="161.5" y="116.3" transform="matrix(-0.7071 -0.7071 0.7071 -0.7071 205.8838 318.9029)" fill="#272727" width="15" height="1"/>
	
		<rect x="171.7" y="106.1" transform="matrix(-0.7071 -0.7071 0.7071 -0.7071 230.6369 308.6499)" fill="#272727" width="15" height="1"/>
	
		<rect x="182" y="95.8" transform="matrix(-0.7071 -0.7071 0.7071 -0.7071 255.3899 298.3968)" fill="#272727" width="15" height="1"/>
	<path fill="#AB8E3F" d="M194.1,102.3"/>
	
		<rect x="192.5" y="85.3" transform="matrix(-0.7071 -0.7071 0.7071 -0.7071 280.6581 287.9304)" fill="#272727" width="15" height="1"/>
	
		<rect x="202.7" y="75.1" transform="matrix(-0.7071 -0.7071 0.7071 -0.7071 305.4112 277.6773)" fill="#272727" width="15" height="1"/>
</g>
</svg>
