<?xml version="1.0" encoding="utf-8"?>
<!-- Generator: Avocode 2.4.5 - http://avocode.com -->
<svg height="45" width="38" xmlns:xlink="http://www.w3.org/1999/xlink" xmlns="http://www.w3.org/2000/svg" viewBox="0 0 38 45">
    <path fill="#6a6967" fill-rule="evenodd" d="M 3.46 45.01 C 1.56 45.01 0.01 43.51 0.01 41.67 C 0.01 41.67 0.01 3.61 0.01 3.61 C 0.01 1.77 1.56 0.27 3.46 0.27 C 3.46 0.27 18.55 0.27 18.55 0.27 C 20.44 0.27 21.99 1.77 21.99 3.61 C 21.99 3.61 21.99 41.67 21.99 41.67 C 21.99 43.51 20.44 45.01 18.55 45.01 C 18.55 45.01 3.46 45.01 3.46 45.01 Z" />
    <path fill="#a8d6eb" fill-rule="evenodd" d="M 1.61 38.91 C 1.61 38.91 1.61 6.59 1.61 6.59 C 1.61 6.59 20.38 6.59 20.38 6.59 C 20.38 6.59 20.38 38.91 20.38 38.91 C 20.38 38.91 1.61 38.91 1.61 38.91 Z" />
    <path fill="#bbe3f5" fill-rule="evenodd" d="M 19.6 38.91 C 19.6 38.91 19.6 6.59 19.6 6.59 C 19.6 6.59 1.61 6.59 1.61 6.59 C 1.61 6.59 19.6 38.91 19.6 38.91 Z" />
    <path stroke-linejoin="miter" stroke-linecap="butt" stroke-width="2" stroke="#c6d557" fill="none" fill-rule="evenodd" d="M 27.98 39.34 C 33.95 35.88 37.97 29.41 37.97 22 C 37.97 14.78 34.16 8.46 28.45 4.95" />
    <path stroke-linejoin="miter" stroke-linecap="butt" stroke-width="2" stroke="#c6d557" fill="none" fill-rule="evenodd" d="M 25.68 9.12 C 30.07 11.74 33 16.52 33 22 C 33 27.62 29.91 32.51 25.34 35.08" />
    <path fill="#414142" fill-rule="evenodd" d="M 11 43.81 C 11.95 43.81 12.71 43.06 12.71 42.15 C 12.71 41.24 11.95 40.49 11 40.49 C 10.06 40.49 9.29 41.24 9.29 42.15 C 9.29 43.06 10.06 43.81 11 43.81 Z" />
    <path fill="#f1f1f2" fill-rule="evenodd" d="M 10.72 43.88 C 9.89 43.88 9.22 43.1 9.22 42.15 C 9.22 41.19 9.89 40.42 10.72 40.42 C 11.55 40.42 12.22 41.19 12.22 42.15 C 12.22 43.1 11.55 43.88 10.72 43.88 Z M 10.72 40.57 C 9.96 40.57 9.35 41.28 9.35 42.15 C 9.35 43.02 9.96 43.73 10.72 43.73 C 11.48 43.73 12.1 43.02 12.1 42.15 C 12.1 41.28 11.48 40.57 10.72 40.57 Z" />
    <path fill="#919395" fill-rule="evenodd" d="M 12.52 4.48 C 12.71 4.48 12.86 4.35 12.86 4.18 C 12.86 4.18 12.86 4.18 12.86 4.18 C 12.86 4.02 12.71 3.88 12.52 3.88 C 12.52 3.88 9.49 3.88 9.49 3.88 C 9.3 3.88 9.15 4.02 9.15 4.18 C 9.15 4.18 9.15 4.18 9.15 4.18 C 9.15 4.35 9.3 4.48 9.49 4.48 C 9.49 4.48 12.52 4.48 12.52 4.48 Z" />
    <path fill="#919395" fill-rule="evenodd" d="M 11 2.9 C 11.24 2.9 11.43 2.72 11.43 2.49 C 11.43 2.26 11.24 2.07 11 2.07 C 10.77 2.07 10.58 2.26 10.58 2.49 C 10.58 2.72 10.77 2.9 11 2.9 Z" />
    <path fill="#414142" fill-rule="evenodd" d="M 17.96 0.53 C 17.96 0.53 14.45 0.53 14.45 0.53 C 14.45 0.53 14.45 0 14.45 0 C 14.45 0 17.96 0 17.96 0 C 17.96 0 17.96 0.53 17.96 0.53 Z" />
</svg>