<?xml version="1.0" encoding="utf-8"?>
<!-- Generator: Adobe Illustrator 17.1.0, SVG Export Plug-In . SVG Version: 6.00 Build 0)  -->
<!DOCTYPE svg PUBLIC "-//W3C//DTD SVG 1.1//EN" "http://www.w3.org/Graphics/SVG/1.1/DTD/svg11.dtd">
<svg version="1.1" id="Capa_1" xmlns="http://www.w3.org/2000/svg" xmlns:xlink="http://www.w3.org/1999/xlink" x="0px" y="0px"
	 viewBox="0 0 141.7 141.7" enable-background="new 0 0 141.7 141.7" xml:space="preserve">
<g>
	<path fill="#000002" d="M137.6,106.2l-20.5-20.5c-2.8-2.7-6.4-4.2-10.4-4.2c-4.1,0-8,1.6-10.9,4.5l-8,8c-6.2-3.4-14.4-8.2-23-16.7
		c-8.5-8.5-13.3-16.8-16.7-23l8-8c5.9-5.9,6.1-15.5,0.3-21.3L36,4.6c-2.7-2.8-6.4-4.3-10.4-4.3c-4,0-7.8,1.5-10.7,4.3
		C13.1,6.1,4.3,13.9,1,29.9c-4.6,22.5,6,44.1,36.5,74.7c34.1,34.1,63.3,36.8,71.4,36.8c1.7,0,2.7-0.1,3-0.1
		c15.9-1.9,21.6-8.9,25.8-14.1C143.1,120.5,143.1,111.7,137.6,106.2z M130.9,121.7c-3.9,4.9-7.6,9.4-20,10.9c0,0-0.7,0.1-2,0.1
		c-7.3,0-33.4-2.5-65.2-34.2C15.6,70.2,5.7,50.9,9.6,31.7c2.9-14,10.5-20,10.8-20.2l0.3-0.2l0.2-0.2c1.3-1.3,2.9-2,4.7-2
		c1.6,0,3.1,0.6,4.2,1.7l20.5,20.5c2.4,2.4,2.2,6.3-0.3,8.8l-9,9l-0.1,0.2c-2.4,2.6-2.1,6.1-0.8,8.4c3.7,6.7,8.9,16,18.7,25.8
		c9.8,9.8,19,14.9,25.8,18.7c0.7,0.4,2.1,1,3.8,1c2.1,0,3.9-0.9,5.3-2.5l8.5-8.5c1.3-1.3,2.9-2,4.7-2c1.6,0,3.1,0.6,4.2,1.7
		l20.5,20.5C134,115.1,133,119.1,130.9,121.7z"/>
	<path fill="#000002" d="M85.9,21.9c7.6,0.9,16.5,5.4,22.7,11.7c6.3,6.3,10.9,15.3,11.7,22.9c0.2,2.3,2.2,3.9,4.4,3.9
		c0.2,0,0.3,0,0.5,0c2.4-0.3,4.2-2.4,3.9-4.8c-1-9.7-6.5-20.4-14.2-28.2c-7.6-7.6-18.3-13.1-27.9-14.2c-2.4-0.3-4.6,1.5-4.9,3.9
		C81.7,19.4,83.5,21.6,85.9,21.9z"/>
	<path fill="#000002" d="M81.8,40.3c4.1,0.5,9.7,3.5,13.4,7.2c3.7,3.7,6.8,9.4,7.2,13.6c0.2,2.3,2.2,3.9,4.4,3.9c0.2,0,0.3,0,0.5,0
		c2.4-0.3,4.2-2.4,3.9-4.8c-0.8-7.1-5.4-14.5-9.7-18.8c-4.3-4.3-11.7-8.9-18.7-9.7c-2.4-0.3-4.6,1.5-4.9,3.9
		C77.6,37.8,79.3,40,81.8,40.3z"/>
</g>
</svg>
