<svg xmlns="http://www.w3.org/2000/svg" width="279.966" height="49.718" viewBox="0 0 580 103"><defs><style>.cls-1{fill:#8a982a}.cls-1,.cls-2,.cls-3{fill-rule:evenodd}.cls-2{fill:#c6d557}.cls-3{fill:#4a501e}</style></defs><path id="Прямоугольник_5" data-name="Прямоугольник 5" class="cls-1" d="M484 1l95 64-15 38H460z"/><path id="Прямоугольник_5_копия" data-name="Прямоугольник 5 копия" class="cls-1" d="M30 17L0 85l15 18h93z"/><path id="Прямоугольник_4" data-name="Прямоугольник 4" class="cls-2" d="M30 16L484 0l96 65L0 85z"/><path id="Жалюзи" class="cls-3" d="M84.283 61.173l2.34-13.107q.33-.063.655-.11a5.993 5.993 0 0 1 .64-.055 2.538 2.538 0 0 1 1.025.153 1.645 1.645 0 0 1 .684.488 2.15 2.15 0 0 1 .385.762 4.025 4.025 0 0 1 .146.99 8.48 8.48 0 0 1-.23 2.1q-.263 1.168-.575 2.392t-.573 2.384a8.308 8.308 0 0 0-.232 2.074 3.572 3.572 0 0 0 .133.85 1.775 1.775 0 0 0 .44.76 2.256 2.256 0 0 0 .87.534 3.865 3.865 0 0 0 1.43.174 9.872 9.872 0 0 0 1.523-.19 17.592 17.592 0 0 0 2.023-.54 1.99 1.99 0 0 1-1.056-.854 2.87 2.87 0 0 1-.425-1.473A7.44 7.44 0 0 1 93.7 56.6q.247-1.063.535-2.224t.53-2.356a10.015 10.015 0 0 0 .208-2.32 5.3 5.3 0 0 0-.26-1.52 2.91 2.91 0 0 0-.76-1.2 3.414 3.414 0 0 0-1.4-.765 6.87 6.87 0 0 0-2.17-.22l-.51.016q.5-1.492.965-2.79a22.114 22.114 0 0 1 1.014-2.39 11.612 11.612 0 0 1 1.248-1.977 7.14 7.14 0 0 1 1.657-1.53 2.12 2.12 0 0 0 2.172 1.37 2.734 2.734 0 0 0 .83-.158 2.042 2.042 0 0 0 .732-.454 2.223 2.223 0 0 0 .52-.8 2.965 2.965 0 0 0 .172-1.192 2.352 2.352 0 0 0-.253-1.038 2.186 2.186 0 0 0-.612-.728 2.64 2.64 0 0 0-.876-.43 3.37 3.37 0 0 0-1.042-.124 5.663 5.663 0 0 0-2.646.84 8.2 8.2 0 0 0-2.54 2.457 12.253 12.253 0 0 0-.943 1.622q-.5 1.01-.982 2.248t-.883 2.6a25.753 25.753 0 0 0-.644 2.676q-.193.007-.4.032t-.42.066l2.192-12.24-5.358 1.3-2.017 11.11q-.195-.03-.362-.042a3.53 3.53 0 0 0-.36-.006q.11-.953.147-2.22a21.7 21.7 0 0 0-.084-2.62 18.313 18.313 0 0 0-.437-2.65 8.748 8.748 0 0 0-.9-2.318 4.937 4.937 0 0 0-1.476-1.632 3.53 3.53 0 0 0-2.173-.572 5.135 5.135 0 0 0-1.276.2 3.513 3.513 0 0 0-1.09.528 2.4 2.4 0 0 0-1 2.125 2.378 2.378 0 0 0 .556 1.56 1.722 1.722 0 0 0 1.417.58 2.51 2.51 0 0 0 2.36-1.52 4.1 4.1 0 0 1 1.085 1.426 8.313 8.313 0 0 1 .607 1.924 14.843 14.843 0 0 1 .25 2.366q.043 1.29.02 2.752h-.106a10.33 10.33 0 0 0-2.73.43 4.673 4.673 0 0 0-2.07 1.272 5.97 5.97 0 0 0-1.19 1.55 9.622 9.622 0 0 0-.734 1.8 14.708 14.708 0 0 0-.43 1.94q-.153 1-.288 1.99t-.307 1.926a9.992 9.992 0 0 1-.488 1.766 6.17 6.17 0 0 1-.822 1.5 4.273 4.273 0 0 1-1.317 1.142 10.346 10.346 0 0 0 2.177.44 16.03 16.03 0 0 0 1.725.05 3.368 3.368 0 0 0 1.466-.337 2.95 2.95 0 0 0 .968-.8 3.85 3.85 0 0 0 .6-1.11 9.9 9.9 0 0 0 .354-1.3q.12-.654.215-1.52t.206-1.8q.11-.935.254-1.9a16.175 16.175 0 0 1 .376-1.817 7.11 7.11 0 0 1 .5-1.388 4.107 4.107 0 0 1 .773-1.106 3.188 3.188 0 0 1 1.068-.71 3.45 3.45 0 0 1 1.365-.238q.193-.006.4 0a4.057 4.057 0 0 1 .44.03L79.1 61.34zm34.393-7.56a9.353 9.353 0 0 1-.432 1.323 4.946 4.946 0 0 1-.615 1.1 3.166 3.166 0 0 1-.795.755 1.843 1.843 0 0 1-.966.3 1.337 1.337 0 0 1-1.527-1.5 4.8 4.8 0 0 1 .017-.57 3.635 3.635 0 0 1 .1-.594l2.19-12.31-5.184.166-.324 1.928-.01-.264a1.583 1.583 0 0 0-.735-1.278 3.707 3.707 0 0 0-2.24-.455 6.865 6.865 0 0 0-2.844.68 8.2 8.2 0 0 0-2.277 1.657 10.818 10.818 0 0 0-1.72 2.342 16.078 16.078 0 0 0-1.186 2.738 16.733 16.733 0 0 0-.665 2.835 15.35 15.35 0 0 0-.16 2.643 7.94 7.94 0 0 0 .49 2.693 4.96 4.96 0 0 0 1.13 1.76 3.9 3.9 0 0 0 1.56.934 5.432 5.432 0 0 0 1.8.24 5.15 5.15 0 0 0 1.756-.346 5.955 5.955 0 0 0 1.426-.8 7.186 7.186 0 0 0 1.143-1.092 14.03 14.03 0 0 0 .927-1.235 3.844 3.844 0 0 0 1.183 2.44 3.452 3.452 0 0 0 2.46.756 7.116 7.116 0 0 0 1.052-.122 5.7 5.7 0 0 0 1.2-.373 6.47 6.47 0 0 0 1.278-.744 7 7 0 0 0 1.27-1.237 10.72 10.72 0 0 0 1.18-1.85 16.154 16.154 0 0 0 1.026-2.566zm-9.276.3a4.9 4.9 0 0 1-.474 1.4 4.383 4.383 0 0 1-.723 1.016 3.1 3.1 0 0 1-.842.624 2.07 2.07 0 0 1-.845.23 3.458 3.458 0 0 1-.564-.036 1.087 1.087 0 0 1-.6-.306 2.176 2.176 0 0 1-.49-.82 5.164 5.164 0 0 1-.246-1.592 13.06 13.06 0 0 1 .1-1.91 17.814 17.814 0 0 1 .4-2.177 17.575 17.575 0 0 1 .678-2.16 10.38 10.38 0 0 1 .942-1.885 5.334 5.334 0 0 1 1.2-1.35 2.4 2.4 0 0 1 1.416-.537 1.537 1.537 0 0 1 .726.127 1.347 1.347 0 0 1 .46.355 1.518 1.518 0 0 1 .334.842zm31.157-1q-.343.837-.64 1.444a5.3 5.3 0 0 1-.627 1.014 2.236 2.236 0 0 1-.72.6 2.2 2.2 0 0 1-.933.216 1.306 1.306 0 0 1-1.49-1.465 8.05 8.05 0 0 1 .18-1.508q.196-1.052.544-2.805l1.63-8.987-5.307.17a6.89 6.89 0 0 0-2.212.415 4.35 4.35 0 0 0-1.82 1.378 9.444 9.444 0 0 0-1.457 2.764 27.748 27.748 0 0 0-1.128 4.59q-.255 1.38-.468 2.663a15.608 15.608 0 0 1-.534 2.26 4.467 4.467 0 0 1-.846 1.575 2.1 2.1 0 0 1-2.093.542 1.17 1.17 0 0 1-.43-.26.92.92 0 0 1-.232-.36 1.93 1.93 0 0 1-.092-.394 1.12 1.12 0 0 0 .99-.375 1.76 1.76 0 0 0 .4-1.323 1.782 1.782 0 0 0-1.94-1.82 1.92 1.92 0 0 0-1.618.862 3.43 3.43 0 0 0-.52 2.092 4.93 4.93 0 0 0 .275 1.476 3.79 3.79 0 0 0 .744 1.278 3.5 3.5 0 0 0 1.252.883 4.2 4.2 0 0 0 1.812.294 4.53 4.53 0 0 0 2.415-.666 4.587 4.587 0 0 0 1.507-1.772 11.628 11.628 0 0 0 .946-2.836q.36-1.682.747-3.84.345-1.858.707-3.18a9.307 9.307 0 0 1 .853-2.173 3.5 3.5 0 0 1 1.15-1.263 3.178 3.178 0 0 1 1.6-.44l-1.352 7.185q-.348 1.752-.5 2.953a12.784 12.784 0 0 0-.13 1.956 4.123 4.123 0 0 0 .3 1.424 3.318 3.318 0 0 0 .82 1.2 3.84 3.84 0 0 0 1.354.8 5.13 5.13 0 0 0 1.9.256q4.428-.143 6.48-6.874zm40.415-1.3a13.485 13.485 0 0 1-.87 2.234 6.436 6.436 0 0 1-1.083 1.556 5.775 5.775 0 0 1-1.374 1.056 9.868 9.868 0 0 1-1.717.73 5.468 5.468 0 0 0-2.193-3.077 3.257 3.257 0 0 0-.876-.43 3.593 3.593 0 0 0 .894-.388 7.674 7.674 0 0 0 1.152-.82 10.473 10.473 0 0 0 1.21-1.217 8.722 8.722 0 0 0 1.066-1.582 9.352 9.352 0 0 0 .747-1.915 7.432 7.432 0 0 0 .244-2.214 6.816 6.816 0 0 0-.482-2.42 5.145 5.145 0 0 0-1.173-1.756 4.7 4.7 0 0 0-1.724-1.053 5.816 5.816 0 0 0-2.13-.31 6.327 6.327 0 0 0-2.5.555 8.633 8.633 0 0 0-2.023 1.323 15.386 15.386 0 0 0-1.778 1.842q-.847 1.03-1.76 2.114-.286-5.565-4.784-5.42a7.875 7.875 0 0 0-3.246.755 8.968 8.968 0 0 0-2.484 1.786 10.625 10.625 0 0 0-1.793 2.468 15.59 15.59 0 0 0-1.16 2.8l-2.81.09 1.28-7.252-5.184.167-3.233 18.113 5.183-.167 1.514-8.7 2.705-.088a17.675 17.675 0 0 0-.216 3.12 7.11 7.11 0 0 0 .515 2.613 4.542 4.542 0 0 0 1.252 1.718 4.68 4.68 0 0 0 1.85.925 8.207 8.207 0 0 0 2.312.233 6.773 6.773 0 0 0 3.1-.855 8.16 8.16 0 0 0 2.548-2.245 12.185 12.185 0 0 0 1.788-3.47 16.728 16.728 0 0 0 .82-4.53h.04q.837-.782 1.594-1.58t1.492-1.455a9.047 9.047 0 0 1 1.452-1.076 3.08 3.08 0 0 1 1.47-.444 1.676 1.676 0 0 1 1.012.258 2.027 2.027 0 0 1 .656.718 3.528 3.528 0 0 1 .357.982 6.11 6.11 0 0 1 .13 1.07 8.637 8.637 0 0 1-.246 2.416 6.643 6.643 0 0 1-.85 2 4.525 4.525 0 0 1-1.363 1.372 3.44 3.44 0 0 1-1.768.54l-1.036.033-.4 2.165 1.107-.036q2.494-.08 2.722 3.73a17.6 17.6 0 0 0-2 .837 8.618 8.618 0 0 0-1.784 1.158 5.43 5.43 0 0 0-1.26 1.527 3.715 3.715 0 0 0-.44 1.95 3.437 3.437 0 0 0 .375 1.526 3.1 3.1 0 0 0 .914 1.062 3.91 3.91 0 0 0 1.3.61 5.366 5.366 0 0 0 1.562.17 6.366 6.366 0 0 0 2.713-.67 5.958 5.958 0 0 0 2.07-1.745 8.226 8.226 0 0 0 1.31-2.742 12.724 12.724 0 0 0 .43-3.654 11.014 11.014 0 0 0 1.753-.68 7.263 7.263 0 0 0 1.78-1.244 9.27 9.27 0 0 0 1.6-2.04 11.82 11.82 0 0 0 1.228-3.1zm-19.934-.538a12.184 12.184 0 0 1-.925 2.4 6.263 6.263 0 0 1-1.17 1.62 1.985 1.985 0 0 1-1.3.622 2.618 2.618 0 0 1-.865-.1 1.076 1.076 0 0 1-.577-.43 2.358 2.358 0 0 1-.335-.877 8.94 8.94 0 0 1-.144-1.455 12.71 12.71 0 0 1 .113-2 19.76 19.76 0 0 1 .42-2.238 18.633 18.633 0 0 1 .694-2.212 12.715 12.715 0 0 1 .914-1.92 5.65 5.65 0 0 1 1.092-1.363 1.936 1.936 0 0 1 1.222-.54 1.5 1.5 0 0 1 .61.085.9.9 0 0 1 .407.347 2.092 2.092 0 0 1 .268.642 6.4 6.4 0 0 1 .154.97 1.8 1.8 0 0 0-.785.738 2.325 2.325 0 0 0-.26 1.248 2.15 2.15 0 0 0 .234.95 1.08 1.08 0 0 0 .783.53 17.71 17.71 0 0 1-.545 2.98zm9.548 10.9a7.294 7.294 0 0 1-.51 1.37 3.61 3.61 0 0 1-.655.946 1.114 1.114 0 0 1-.743.368 1.19 1.19 0 0 1-.942-.3 1.215 1.215 0 0 1-.326-.834 1.826 1.826 0 0 1 .257-1.01 3.265 3.265 0 0 1 .754-.86 5.938 5.938 0 0 1 1.122-.714q.64-.32 1.335-.588a9.475 9.475 0 0 1-.29 1.614zm21.075-10.7a9.974 9.974 0 0 1-.44 1.29 4.376 4.376 0 0 1-.6 1.03 2.8 2.8 0 0 1-.78.684 2 2 0 0 1-.958.267.932.932 0 0 1-.522-.115.975.975 0 0 1-.336-.34 1.62 1.62 0 0 1-.192-.5 3.27 3.27 0 0 1-.072-.6 4.014 4.014 0 0 1 .076-.918l2.19-12.31-5.184.166-2.07 11.622q-.118.69-.17 1.28a9.353 9.353 0 0 0-.036 1.083 5.642 5.642 0 0 0 .362 1.94 3.7 3.7 0 0 0 .86 1.31 3.144 3.144 0 0 0 1.245.734 4.55 4.55 0 0 0 1.52.2 7.2 7.2 0 0 0 1.217-.155 4.562 4.562 0 0 0 1.337-.527 6.632 6.632 0 0 0 1.372-1.082 8.29 8.29 0 0 0 1.32-1.82A4.08 4.08 0 0 0 192.98 57a3.328 3.328 0 0 0 2.462.81 4.9 4.9 0 0 0 1.425-.258 3.477 3.477 0 0 0 1.217-.708 3.585 3.585 0 0 0 .86-1.18 4.38 4.38 0 0 0 .367-1.69 2.22 2.22 0 0 0-.225.085 1.833 1.833 0 0 1-.234.086 1.943 1.943 0 0 1-.3.062 4.22 4.22 0 0 1-.43.03 1.766 1.766 0 0 1-1.12-.253 1.278 1.278 0 0 1-.394-1.034 4.594 4.594 0 0 1 .017-.57 3.635 3.635 0 0 1 .1-.594l2.19-12.31-5.184.166z"/></svg>