<svg xmlns="http://www.w3.org/2000/svg" width="279.966" height="48.753" viewBox="0 0 580 101"><defs><style>.cls-1{fill:#6293b0}.cls-1,.cls-2,.cls-3{fill-rule:evenodd}.cls-2{fill:#9ac6df}.cls-3{fill:#3a5d71}</style></defs><path id="Прямоугольник_5_копия_2" data-name="Прямоугольник 5 копия 2" class="cls-1" d="M482 1l97 64-15 36H460z"/><path id="Прямоугольник_5_копия_2-2" data-name="Прямоугольник 5 копия 2" class="cls-1" d="M32 17L1 81l16 20h89z"/><path id="Прямоугольник_4_копия" data-name="Прямоугольник 4 копия" class="cls-2" d="M30 16L482 0l98 65L0 81z"/><path id="Шторы" class="cls-3" d="M98.128 58.728l4.86-27.1-5.182.167L93.4 56.207l-4.568.147 4.4-24.412-5.183.167-4.4 24.41-4.218.137 4.4-24.412q-.353-.024-.7-.03t-.732.005a13.014 13.014 0 0 0-3.01.457 15.9 15.9 0 0 0-2.884 1.1 15.516 15.516 0 0 0-2.578 1.6 12.2 12.2 0 0 0-2.055 1.983 8.93 8.93 0 0 0-1.348 2.24 5.718 5.718 0 0 0-.443 2.37 4.81 4.81 0 0 0 .3 1.645 2.444 2.444 0 0 0 .772 1.048 3.082 3.082 0 0 0 1.23.55 6.685 6.685 0 0 0 1.658.13.52.52 0 0 0-.087-.242 3 3 0 0 1-.188-.39 4.05 4.05 0 0 1-.2-.68 6.386 6.386 0 0 1-.115-1.112 8.642 8.642 0 0 1 1.17-4.936 8.09 8.09 0 0 1 3.62-3.115L73.81 59.51zm33.32-7.528q-.26.712-.53 1.31a5.05 5.05 0 0 1-.607 1.03 2.585 2.585 0 0 1-.77.676 2.178 2.178 0 0 1-1.01.26 1.317 1.317 0 0 1-1.147-.384 1.8 1.8 0 0 1-.343-1.08 6.252 6.252 0 0 1 .094-1.19q.11-.68.27-1.476t.358-1.665q.2-.867.358-1.743t.26-1.714a10.06 10.06 0 0 0 .083-1.56 5.137 5.137 0 0 0-.358-1.834 3.2 3.2 0 0 0-2.164-1.92 5.3 5.3 0 0 0-1.6-.176 6.32 6.32 0 0 0-1.085.14 4.763 4.763 0 0 0-1.234.463 6.052 6.052 0 0 0-1.304.965 7.81 7.81 0 0 0-1.284 1.65 4.346 4.346 0 0 0-.52-1.416 3.2 3.2 0 0 0-.84-.93 3.06 3.06 0 0 0-1.106-.5 5.022 5.022 0 0 0-1.323-.125 6.78 6.78 0 0 0-1 .112 5.074 5.074 0 0 0-1.08.334 5.742 5.742 0 0 0-1.122.652 6.436 6.436 0 0 0-1.124 1.083l.326-1.874-5.183.167-3.23 18.11 5.183-.166 2.07-11.62a10.754 10.754 0 0 1 .45-1.317 5.26 5.26 0 0 1 .607-1.092 2.914 2.914 0 0 1 .785-.746 1.89 1.89 0 0 1 .967-.295.93.93 0 0 1 .522.115 1.06 1.06 0 0 1 .345.34 1.494 1.494 0 0 1 .2.496 3.277 3.277 0 0 1 .07.6 3.656 3.656 0 0 1-.076.9l-2.234 12.5 5.182-.167 2.07-11.62a10.128 10.128 0 0 1 .452-1.307 5.313 5.313 0 0 1 .6-1.075 3.046 3.046 0 0 1 .75-.736 1.694 1.694 0 0 1 .905-.293q1.3-.043 1.36 1.8a10.136 10.136 0 0 1-.19 2.063q-.216 1.2-.473 2.495t-.477 2.523a10.587 10.587 0 0 0-.186 2.144 5.13 5.13 0 0 0 .268 1.495 3.528 3.528 0 0 0 .753 1.276 3.462 3.462 0 0 0 1.33.872 5.145 5.145 0 0 0 2.013.278 6.587 6.587 0 0 0 1.566-.26 4.7 4.7 0 0 0 1.71-.962 8.393 8.393 0 0 0 1.692-2.068 15.684 15.684 0 0 0 1.512-3.584zm21.442-8.9q-.567.423-1.257.84a12.532 12.532 0 0 1-1.418.74 11.312 11.312 0 0 1-1.452.53 5.574 5.574 0 0 1-1.356.23l-.22.006a.444.444 0 0 1-.167-.03v-.036q-.186-5.745-4.806-5.6a7.82 7.82 0 0 0-3.264.765 8.9 8.9 0 0 0-2.483 1.812 10.7 10.7 0 0 0-1.784 2.493 16.63 16.63 0 0 0-1.158 2.825 17.3 17.3 0 0 0-.614 2.79 15.07 15.07 0 0 0-.14 2.405 7.11 7.11 0 0 0 .514 2.613 4.542 4.542 0 0 0 1.25 1.718 4.673 4.673 0 0 0 1.86.926 8.3 8.3 0 0 0 2.32.233 6.775 6.775 0 0 0 3.1-.857 8.15 8.15 0 0 0 2.548-2.245 12.023 12.023 0 0 0 1.78-3.47 16.927 16.927 0 0 0 .812-4.527 14.292 14.292 0 0 0 3.62-1.224 8.836 8.836 0 0 0 2.662-1.967zm-9.464 7.34a12.5 12.5 0 0 1-.916 2.4 5.977 5.977 0 0 1-1.17 1.62 2 2 0 0 1-1.29.62 2.624 2.624 0 0 1-.865-.1 1.122 1.122 0 0 1-.585-.43 2.256 2.256 0 0 1-.345-.876 8.83 8.83 0 0 1-.144-1.455 12.707 12.707 0 0 1 .113-2 19.538 19.538 0 0 1 .42-2.24 18.633 18.633 0 0 1 .694-2.21 12.09 12.09 0 0 1 .923-1.92 5.894 5.894 0 0 1 1.09-1.364 1.92 1.92 0 0 1 1.232-.54 1.5 1.5 0 0 1 .61.085.893.893 0 0 1 .406.348 2.093 2.093 0 0 1 .267.642 6.51 6.51 0 0 1 .155.97 1.853 1.853 0 0 0-.8.74 2.28 2.28 0 0 0-.267 1.248 2.152 2.152 0 0 0 .233.95 1.08 1.08 0 0 0 .782.53 17.607 17.607 0 0 1-.542 2.98zm10.032 15.01l1.58-8.827a2.942 2.942 0 0 0 .41.47 2.185 2.185 0 0 0 .61.394 3.7 3.7 0 0 0 .88.253 5.955 5.955 0 0 0 1.2.067 7.43 7.43 0 0 0 3.062-.707 7.614 7.614 0 0 0 2.276-1.682 9.137 9.137 0 0 0 1.57-2.363 15.545 15.545 0 0 0 .974-2.757 17.956 17.956 0 0 0 .48-2.847 22.5 22.5 0 0 0 .082-2.63 9.057 9.057 0 0 0-.43-2.678 4.72 4.72 0 0 0-.986-1.718 3.386 3.386 0 0 0-1.428-.9 5.06 5.06 0 0 0-1.73-.234 6.008 6.008 0 0 0-2.376.516 7.214 7.214 0 0 0-1.774 1.165l.493-2.723-5.182.167-5.1 28.515zM157.334 43a3.873 3.873 0 0 1 1.143-1.365 2.073 2.073 0 0 1 1.842-.43 1.2 1.2 0 0 1 .6.36 2.456 2.456 0 0 1 .494.88 5.553 5.553 0 0 1 .246 1.63 17.512 17.512 0 0 1-.054 1.89 18.45 18.45 0 0 1-.292 2.13 16.066 16.066 0 0 1-.565 2.11 8.235 8.235 0 0 1-.89 1.85 4.837 4.837 0 0 1-1.26 1.324 3.012 3.012 0 0 1-1.67.536 1.465 1.465 0 0 1-.95-.233 1.294 1.294 0 0 1-.448-.548zm27.247 6.492q-.117.69-.17 1.28a9.12 9.12 0 0 0-.034 1.084 6.32 6.32 0 0 0 .324 1.944 3.658 3.658 0 0 0 .78 1.312 2.866 2.866 0 0 0 1.14.737 3.827 3.827 0 0 0 1.39.2 4.522 4.522 0 0 0 1.38-.265 3.608 3.608 0 0 0 1.208-.716 3.706 3.706 0 0 0 .867-1.18 4.25 4.25 0 0 0 .377-1.675 3.513 3.513 0 0 1-.416.172 2.76 2.76 0 0 1-.736.094 1.766 1.766 0 0 1-1.125-.253 1.284 1.284 0 0 1-.394-1.034 4.712 4.712 0 0 1 .122-1.165l2.224-12.312-2.23.072q-1.28.727-2.356 1.42l-2.13 1.377q-1.06.685-2.164 1.345t-2.42 1.3a4.878 4.878 0 0 0-1.483-.163 2.81 2.81 0 0 0-.726.12 1.952 1.952 0 0 0-.64.328 1.636 1.636 0 0 0-.45.533 1.442 1.442 0 0 0-.15.735 1.538 1.538 0 0 0 .17.707 1.45 1.45 0 0 0 .394.462 1.527 1.527 0 0 0 .52.256 1.818 1.818 0 0 0 .547.07 1.766 1.766 0 0 0 .576-.115 1.794 1.794 0 0 0 .467-.253 1.578 1.578 0 0 1 .414.567 2.156 2.156 0 0 1 .157.786 8.106 8.106 0 0 1-.25 2.347 7.09 7.09 0 0 1-.8 1.925 4.52 4.52 0 0 1-1.188 1.313 2.54 2.54 0 0 1-1.417.512 1.37 1.37 0 0 1-1.664-1.424c0-.13-.006-.293-.006-.492a1.427 1.427 0 0 1 .08-.513l2.263-12.752-4.972.16-2 11.62q-.088.565-.14 1.085a7.206 7.206 0 0 0-.04.977 4.347 4.347 0 0 0 1.444 3.348 5.48 5.48 0 0 0 3.85 1.09 7.832 7.832 0 0 0 2.544-.477 7.493 7.493 0 0 0 3.494-2.653 9.7 9.7 0 0 0 1.024-1.783 8.657 8.657 0 0 0 .575-1.82 7.528 7.528 0 0 0 .148-1.66 6.543 6.543 0 0 0-.976-3.555q1.035-.6 2.018-1.21t1.947-1.258z"/></svg>