<?xml version="1.0" encoding="utf-8"?>
<!-- Generator: Adobe Illustrator 17.1.0, SVG Export Plug-In . SVG Version: 6.00 Build 0)  -->
<!DOCTYPE svg PUBLIC "-//W3C//DTD SVG 1.1//EN" "http://www.w3.org/Graphics/SVG/1.1/DTD/svg11.dtd">
<svg version="1.1" id="Слой_1" xmlns="http://www.w3.org/2000/svg" xmlns:xlink="http://www.w3.org/1999/xlink" x="0px" y="0px"
	 viewBox="0 0 81.4 81.4" enable-background="new 0 0 81.4 81.4" xml:space="preserve">
<g>
	<g>
		<rect x="55.7" y="54.6" fill="#9B7E65" width="9.6" height="17.3"/>
		<polygon fill="#85644A" points="65.3,71.8 56.7,71.8 62,61.3 65.3,54.6 		"/>
		<g>
			<polygon fill="#C5CF66" points="64.2,39.1 67.8,39.1 60.5,30.4 53.1,39.1 56.7,39.1 48.2,49.1 53.3,49.1 43.9,60.2 55.3,60.2 
				67.4,42.8 			"/>
			<polygon fill="#BBBE51" points="67.6,49.1 72.7,49.1 67.4,42.8 55.3,60.2 77.1,60.2 			"/>
			<rect x="43.9" y="60.2" fill="#BBBE51" width="33.2" height="0.9"/>
			<rect x="53.1" y="39" fill="#BBBE51" width="14.7" height="0.6"/>
			<rect x="48.3" y="49.1" fill="#BBBE51" width="24.4" height="0.6"/>
			<polygon fill="#BBBE51" points="65.3,40.4 58.8,49.1 63,49.1 67.4,42.8 			"/>
		</g>
		<g>
			<polygon fill="#C5CF66" points="60.5,30.4 53.1,39.1 60.9,39.1 64.1,34.7 			"/>
			<polygon fill="#BBBE51" points="64.1,34.7 60.9,39.1 67.8,39.1 			"/>
		</g>
	</g>
</g>
<g>
	<g>
		<rect x="22.3" y="44.8" fill="#9B7E65" width="15" height="27"/>
		<polygon fill="#85644A" points="37.3,71.8 24,71.8 32.2,55.4 37.3,44.8 		"/>
		<g>
			<polygon fill="#C5CF66" points="35.6,20.6 41.3,20.6 29.8,7.1 18.3,20.6 24,20.6 10.7,36.3 18.6,36.3 3.9,53.7 21.8,53.7 
				40.6,26.5 			"/>
			<polygon fill="#BBBE51" points="41,36.3 48.9,36.3 40.6,26.5 21.8,53.7 55.7,53.7 			"/>
			<rect x="3.9" y="53.7" fill="#BBBE51" width="51.8" height="1.4"/>
			<rect x="18.3" y="20.6" fill="#BBBE51" width="22.9" height="0.9"/>
			<rect x="10.7" y="36.3" fill="#BBBE51" width="38.1" height="1"/>
			<polygon fill="#BBBE51" points="37.3,22.6 27.1,36.3 33.7,36.3 40.6,26.5 			"/>
		</g>
		<g>
			<polygon fill="#C5CF66" points="29.8,7.1 18.3,20.6 30.5,20.6 35.5,13.8 			"/>
			<polygon fill="#BBBE51" points="35.5,13.8 30.5,20.6 41.3,20.6 			"/>
		</g>
	</g>
</g>
</svg>
