<?xml version="1.0" encoding="utf-8"?>
<!-- Generator: Adobe Illustrator 17.0.0, SVG Export Plug-In . SVG Version: 6.00 Build 0)  -->
<!DOCTYPE svg PUBLIC "-//W3C//DTD SVG 1.1//EN" "http://www.w3.org/Graphics/SVG/1.1/DTD/svg11.dtd">
<svg version="1.1" id="Слой_1" xmlns="http://www.w3.org/2000/svg" xmlns:xlink="http://www.w3.org/1999/xlink" x="0px" y="0px"
	 width="50px" height="50px" viewBox="0 0 50 50" enable-background="new 0 0 50 50" xml:space="preserve">
<g>
	<g>
		<rect x="34.214" y="33.538" fill="#9B7E65" width="5.897" height="10.627"/>
		<polygon fill="#85644A" points="40.111,44.103 34.828,44.103 38.084,37.654 40.111,33.538 		"/>
		<g>
			<polygon fill="#C1D64A" points="39.435,24.017 41.646,24.017 37.162,18.673 32.617,24.017 34.828,24.017 29.607,30.16 
				32.74,30.16 26.966,36.978 33.968,36.978 41.4,26.29 			"/>
			<polygon fill="#B5C144" points="41.523,30.16 44.656,30.16 41.4,26.29 33.968,36.978 47.359,36.978 			"/>
			<rect x="26.966" y="36.978" fill="#B5C144" width="20.393" height="0.553"/>
			<rect x="32.617" y="23.956" fill="#B5C144" width="9.029" height="0.369"/>
			<rect x="29.668" y="30.16" fill="#B5C144" width="14.988" height="0.369"/>
			<polygon fill="#B5C144" points="40.111,24.816 36.118,30.16 38.698,30.16 41.4,26.29 			"/>
		</g>
		<g>
			<polygon fill="#C1D64A" points="37.162,18.673 32.617,24.017 37.408,24.017 39.373,21.314 			"/>
			<polygon fill="#B5C144" points="39.373,21.314 37.408,24.017 41.646,24.017 			"/>
		</g>
	</g>
</g>
<g>
	<g>
		<rect x="13.698" y="27.518" fill="#9B7E65" width="9.214" height="16.585"/>
		<polygon fill="#85644A" points="22.912,44.103 14.742,44.103 19.779,34.029 22.912,27.518 		"/>
		<g>
			<polygon fill="#C1D64A" points="21.867,12.654 25.369,12.654 18.305,4.361 11.241,12.654 14.742,12.654 6.572,22.297 
				11.425,22.297 2.396,32.985 13.391,32.985 24.939,16.278 			"/>
			<polygon fill="#B5C144" points="25.184,22.297 30.037,22.297 24.939,16.278 13.391,32.985 34.214,32.985 			"/>
			<rect x="2.396" y="32.985" fill="#B5C144" width="31.818" height="0.86"/>
			<rect x="11.241" y="12.654" fill="#B5C144" width="14.066" height="0.553"/>
			<rect x="6.572" y="22.297" fill="#B5C144" width="23.403" height="0.614"/>
			<polygon fill="#B5C144" points="22.912,13.882 16.646,22.297 20.7,22.297 24.939,16.278 			"/>
		</g>
		<g>
			<polygon fill="#C1D64A" points="18.305,4.361 11.241,12.654 18.735,12.654 21.806,8.477 			"/>
			<polygon fill="#B5C144" points="21.806,8.477 18.735,12.654 25.369,12.654 			"/>
		</g>
	</g>
</g>
</svg>
