<svg xmlns="http://www.w3.org/2000/svg" width="440" height="11" viewBox="0 0 440 11">
  <defs>
    <style>
      .cls-1 {
        fill: #fdfdfd;
        fill-rule: evenodd;
      }
    </style>
  </defs>
  <path id="Прямоугольник_104" data-name="Прямоугольник 104" class="cls-1" d="M818,551s4.191,5,10.023,5c2.954,0,5.584-5,9.821-5,3.042,0,6.4,5,10.037,5,2.875,0,6.928-5,10.146-5,3.359,0,5.9,5,9.6,5,3.433,0,6.666-5,10.371-5,3.132,0,6.7,5,10.01,5,3.216,0,6.513-5,9.885-5,2.613,0,7.272,5,9.972,5,3.545,0,6.453-5,10.133-5,3.3,0,6.364,5,9.766,5,3.473,0,6.668-5,10.234-5,3.016,0,6.925,5,10,5,3.348,0,6.59-5,10-5,3.362,0,6.357,5,9.772,5,3.229,0,6.959-5,10.228-5,3.428,0,6.4,5,9.861,5,3.236,0,6.878-5,10.139-5,3.46,0,6.53,5,10.01,5,3.2,0,6.77-5,9.99-5,3.43,0,6.51,5,9.95,5,3.34,0,6.67-5,10.01-5,3.4,0,6.65,5,10.04,5,3.31,0,6.78-5,10.08-5,3.32,0,6.61,5,9.92,5,3.13,0,6.89-5,10-5,3.62,0,6.42,5,10,5,3.23,0,6.64-5,9.83-5,3.25,0,6.97,5,10.17,5,3.33,0,6.73-5,10-5,3.58,0,6.54,5,10.05,5,3.29,0,6.55-5,9.76-5,3.31,0,6.97,5,10.19,5,3.6,0,6.53-5,10-5,3.41,0,6.72,5,10,5s6.77-5,9.91-5c3.43,0,6.76,5,10,5,3.55,0,6.79-5,10.09-5s6.97,5,10,5c3.65,0,6.78-5,10-5,3.58,0,6.89,5,9.9,5,4.03,0,7.52-5,10.41-5,2.49,0,6.11,5,9.57,5,5.24,0,10.12-5,10.12-5v11H818V551Z" transform="translate(-818 -551)"/>
</svg>
