<svg xmlns="http://www.w3.org/2000/svg" width="131" height="36" viewBox="0 0 131 36"><defs><style>.cls-1{fill:#353231;fill-rule:evenodd}</style></defs><path id="Жалюзи" class="cls-1" d="M15.736 27l2.76-13.025c.223-.035.442-.064.66-.088a6.09 6.09 0 0 1 .64-.035 2.535 2.535 0 0 1 1.02.184 1.635 1.635 0 0 1 .668.51 2.16 2.16 0 0 1 .36.774 4.025 4.025 0 0 1 .115.993 8.488 8.488 0 0 1-.3 2.092q-.3 1.16-.65 2.373t-.652 2.364a8.323 8.323 0 0 0-.3 2.065 3.588 3.588 0 0 0 .1.853 1.77 1.77 0 0 0 .413.773 2.252 2.252 0 0 0 .854.563 3.87 3.87 0 0 0 1.423.22 9.82 9.82 0 0 0 1.53-.14 17.52 17.52 0 0 0 2.04-.476 1.988 1.988 0 0 1-1.03-.887 2.863 2.863 0 0 1-.377-1.486 7.422 7.422 0 0 1 .28-1.9q.28-1.055.607-2.206t.607-2.337a10.037 10.037 0 0 0 .28-2.312 5.292 5.292 0 0 0-.21-1.528 2.913 2.913 0 0 0-.72-1.222 3.415 3.415 0 0 0-1.372-.808 6.847 6.847 0 0 0-2.162-.29h-.51q.544-1.478 1.055-2.76a22.142 22.142 0 0 1 1.09-2.356 11.614 11.614 0 0 1 1.3-1.933 7.138 7.138 0 0 1 1.7-1.477 2.118 2.118 0 0 0 2.127 1.442 2.733 2.733 0 0 0 .835-.132 2.04 2.04 0 0 0 .747-.43 2.236 2.236 0 0 0 .545-.783 2.977 2.977 0 0 0 .21-1.187 2.35 2.35 0 0 0-.22-1.045 2.2 2.2 0 0 0-.59-.747 2.648 2.648 0 0 0-.86-.457 3.387 3.387 0 0 0-1.037-.158 5.658 5.658 0 0 0-2.672.756 8.188 8.188 0 0 0-2.618 2.373 12.32 12.32 0 0 0-.994 1.59q-.536.994-1.054 2.216t-.967 2.575a25.92 25.92 0 0 0-.73 2.654 5.287 5.287 0 0 0-.822.07L21.44.07l-5.4 1.124-2.374 11.04c-.13-.025-.25-.042-.36-.054a3.36 3.36 0 0 0-.36-.018q.14-.948.22-2.215a22 22 0 0 0 0-2.62 18.29 18.29 0 0 0-.353-2.662 8.742 8.742 0 0 0-.826-2.346A4.93 4.93 0 0 0 10.575.643 3.527 3.527 0 0 0 8.422.002 5.148 5.148 0 0 0 7.14.16a3.51 3.51 0 0 0-1.11.493 2.475 2.475 0 0 0-.78.852 2.505 2.505 0 0 0-.29 1.24 2.384 2.384 0 0 0 .517 1.573 1.724 1.724 0 0 0 1.4.624A2.51 2.51 0 0 0 9.285 3.5a4.1 4.1 0 0 1 1.037 1.46 8.313 8.313 0 0 1 .545 1.942 14.838 14.838 0 0 1 .176 2.373q0 1.29-.07 2.75h-.106a10.356 10.356 0 0 0-2.742.343 4.68 4.68 0 0 0-2.11 1.205 5.987 5.987 0 0 0-1.24 1.51 9.68 9.68 0 0 0-.79 1.777 14.73 14.73 0 0 0-.492 1.924q-.184.995-.35 1.978t-.37 1.916a9.973 9.973 0 0 1-.545 1.75 6.182 6.182 0 0 1-.87 1.476 4.27 4.27 0 0 1-1.354 1.1 10.3 10.3 0 0 0 2.162.51 16.137 16.137 0 0 0 1.723.1 3.353 3.353 0 0 0 1.475-.29 2.943 2.943 0 0 0 .993-.764 3.852 3.852 0 0 0 .633-1.09 10.025 10.025 0 0 0 .4-1.283q.14-.65.264-1.512t.264-1.793q.14-.93.316-1.89a16.134 16.134 0 0 1 .44-1.82 7.126 7.126 0 0 1 .545-1.37 4.1 4.1 0 0 1 .807-1.08 3.2 3.2 0 0 1 1.09-.678 3.44 3.44 0 0 1 1.37-.193q.195 0 .406.01a3.883 3.883 0 0 1 .44.044l-2.778 13.1h5.185zm34.62-6.45a9.46 9.46 0 0 1-.476 1.31 4.974 4.974 0 0 1-.65 1.08 3.152 3.152 0 0 1-.818.73 1.84 1.84 0 0 1-.975.272 1.337 1.337 0 0 1-1.477-1.547 4.85 4.85 0 0 1 .035-.572 3.758 3.758 0 0 1 .123-.588L48.702 9h-5.185l-.387 1.916v-.263a1.58 1.58 0 0 0-.694-1.3 3.7 3.7 0 0 0-2.224-.528 6.874 6.874 0 0 0-2.865.59 8.2 8.2 0 0 0-2.33 1.58 10.815 10.815 0 0 0-1.792 2.287 15.942 15.942 0 0 0-1.275 2.7 16.654 16.654 0 0 0-.755 2.812 15.362 15.362 0 0 0-.247 2.637 7.926 7.926 0 0 0 .405 2.708 4.968 4.968 0 0 0 1.072 1.793 3.9 3.9 0 0 0 1.53.985 5.437 5.437 0 0 0 1.792.3 5.138 5.138 0 0 0 1.767-.29 5.953 5.953 0 0 0 1.45-.756 7.256 7.256 0 0 0 1.178-1.055 14.092 14.092 0 0 0 .967-1.2 3.84 3.84 0 0 0 1.1 2.47 3.45 3.45 0 0 0 2.434.835 7.03 7.03 0 0 0 1.054-.088 5.615 5.615 0 0 0 1.213-.334 6.453 6.453 0 0 0 1.3-.7 6.983 6.983 0 0 0 1.31-1.195 10.762 10.762 0 0 0 1.24-1.81 16.185 16.185 0 0 0 1.107-2.532h-1.512zm-9.283 0a4.945 4.945 0 0 1-.518 1.388 4.42 4.42 0 0 1-.756.993 3.08 3.08 0 0 1-.862.6 2.088 2.088 0 0 1-.853.2 3.48 3.48 0 0 1-.562-.052 1.078 1.078 0 0 1-.59-.325 2.172 2.172 0 0 1-.465-.835 5.145 5.145 0 0 1-.193-1.6 13.023 13.023 0 0 1 .158-1.907 17.38 17.38 0 0 1 .466-2.16 17.747 17.747 0 0 1 .746-2.137 10.347 10.347 0 0 1 1-1.854 5.332 5.332 0 0 1 1.24-1.31 2.4 2.4 0 0 1 1.432-.493 1.536 1.536 0 0 1 .72.15 1.343 1.343 0 0 1 .448.368 1.42 1.42 0 0 1 .238.457 1.49 1.49 0 0 1 .07.4zm31.173 0q-.37.825-.685 1.423a5.36 5.36 0 0 1-.658.993 2.24 2.24 0 0 1-.74.58 2.2 2.2 0 0 1-.94.185 1.306 1.306 0 0 1-1.44-1.51 8.093 8.093 0 0 1 .228-1.5q.228-1.047.633-2.787l1.916-8.93h-5.31a6.9 6.9 0 0 0-2.223.343 4.36 4.36 0 0 0-1.864 1.318 9.45 9.45 0 0 0-1.546 2.716 27.752 27.752 0 0 0-1.275 4.553q-.3 1.37-.554 2.645a15.565 15.565 0 0 1-.606 2.242 4.473 4.473 0 0 1-.9 1.547 2.1 2.1 0 0 1-2.11.474 1.17 1.17 0 0 1-.422-.27.938.938 0 0 1-.22-.37 1.932 1.932 0 0 1-.08-.4 1.12 1.12 0 0 0 1-.343 1.758 1.758 0 0 0 .44-1.31 1.78 1.78 0 0 0-1.88-1.88 1.92 1.92 0 0 0-1.644.808 3.443 3.443 0 0 0-.588 2.075 4.947 4.947 0 0 0 .228 1.485 3.807 3.807 0 0 0 .7 1.3 3.5 3.5 0 0 0 1.222.923 4.212 4.212 0 0 0 1.8.35 4.52 4.52 0 0 0 2.434-.588 4.57 4.57 0 0 0 1.565-1.722 11.665 11.665 0 0 0 1.037-2.8q.412-1.67.87-3.814.4-1.846.81-3.156a9.28 9.28 0 0 1 .92-2.144 3.493 3.493 0 0 1 1.188-1.222 3.173 3.173 0 0 1 1.617-.387l-1.583 7.137q-.405 1.74-.6 2.936a12.717 12.717 0 0 0-.193 1.95 4.118 4.118 0 0 0 .255 1.433 3.345 3.345 0 0 0 .78 1.223 3.85 3.85 0 0 0 1.328.844 5.124 5.124 0 0 0 1.89.316q4.43 0 6.7-6.662h-1.512zm40.437 0a13.532 13.532 0 0 1-.94 2.205 6.457 6.457 0 0 1-1.134 1.52 5.785 5.785 0 0 1-1.407 1.01 9.823 9.823 0 0 1-1.74.678 5.467 5.467 0 0 0-2.092-3.146 3.24 3.24 0 0 0-.86-.457 3.594 3.594 0 0 0 .905-.36 7.69 7.69 0 0 0 1.177-.783 10.467 10.467 0 0 0 1.248-1.178 8.716 8.716 0 0 0 1.117-1.548 9.33 9.33 0 0 0 .808-1.89 7.464 7.464 0 0 0 .317-2.205 6.812 6.812 0 0 0-.4-2.435 5.14 5.14 0 0 0-1.116-1.793 4.7 4.7 0 0 0-1.69-1.108 5.82 5.82 0 0 0-2.12-.378 6.33 6.33 0 0 0-2.513.474 8.678 8.678 0 0 0-2.066 1.257A15.606 15.606 0 0 0 98.34 12.2q-.88 1-1.828 2.056-.105-5.573-4.605-5.572a7.88 7.88 0 0 0-3.27.65 8.967 8.967 0 0 0-2.54 1.7 10.633 10.633 0 0 0-1.872 2.41 15.65 15.65 0 0 0-1.248 2.758h-2.812l1.51-7.207h-5.184l-3.814 18h5.186l1.793-8.648h2.707a17.576 17.576 0 0 0-.316 3.11 7.117 7.117 0 0 0 .43 2.63 4.54 4.54 0 0 0 1.2 1.757 4.675 4.675 0 0 0 1.82.984 8.2 8.2 0 0 0 2.3.308 6.77 6.77 0 0 0 3.127-.756 8.154 8.154 0 0 0 2.62-2.162 12.2 12.2 0 0 0 1.9-3.41 16.716 16.716 0 0 0 .967-4.5h.035q.86-.756 1.644-1.53t1.537-1.406a9.05 9.05 0 0 1 1.485-1.028 3.078 3.078 0 0 1 1.485-.4 1.675 1.675 0 0 1 1 .29 2.028 2.028 0 0 1 .633.74 3.532 3.532 0 0 1 .325.992 6.078 6.078 0 0 1 .1 1.072 8.62 8.62 0 0 1-.325 2.408 6.64 6.64 0 0 1-.914 1.97 4.51 4.51 0 0 1-1.407 1.326 3.43 3.43 0 0 1-1.785.484h-1.037l-.474 2.162h1.107q2.5 0 2.6 3.814a17.517 17.517 0 0 0-2.03.774 8.584 8.584 0 0 0-1.82 1.1 5.427 5.427 0 0 0-1.31 1.486 3.71 3.71 0 0 0-.5 1.933 3.432 3.432 0 0 0 .327 1.538 3.067 3.067 0 0 0 .88 1.09 3.9 3.9 0 0 0 1.282.65 5.377 5.377 0 0 0 1.554.22 6.366 6.366 0 0 0 2.734-.58 5.954 5.954 0 0 0 2.127-1.68 8.228 8.228 0 0 0 1.4-2.7 12.71 12.71 0 0 0 .545-3.637 11.055 11.055 0 0 0 1.776-.624 7.283 7.283 0 0 0 1.82-1.187 9.343 9.343 0 0 0 1.67-1.986 11.84 11.84 0 0 0 1.326-3.06h-1.512zm-19.908-1.18a12.13 12.13 0 0 1-1 2.374 6.223 6.223 0 0 1-1.222 1.582 1.982 1.982 0 0 1-1.318.58 2.6 2.6 0 0 1-.86-.123 1.077 1.077 0 0 1-.564-.448 2.372 2.372 0 0 1-.306-.887 8.86 8.86 0 0 1-.1-1.46 12.646 12.646 0 0 1 .176-2 19.674 19.674 0 0 1 .492-2.222 18.75 18.75 0 0 1 .764-2.19 12.6 12.6 0 0 1 .976-1.888 5.622 5.622 0 0 1 1.134-1.327 1.935 1.935 0 0 1 1.24-.5 1.513 1.513 0 0 1 .606.1.894.894 0 0 1 .4.36 2.094 2.094 0 0 1 .246.652 6.257 6.257 0 0 1 .123.975 1.8 1.8 0 0 0-.807.712 2.32 2.32 0 0 0-.3 1.238 2.155 2.155 0 0 0 .2.96 1.078 1.078 0 0 0 .765.552 17.655 17.655 0 0 1-.643 2.96zm9.193 11.2a7.3 7.3 0 0 1-.553 1.354 3.61 3.61 0 0 1-.686.923 1.115 1.115 0 0 1-.757.343 1.19 1.19 0 0 1-.93-.334 1.215 1.215 0 0 1-.3-.844 1.83 1.83 0 0 1 .29-1 3.258 3.258 0 0 1 .78-.835 5.916 5.916 0 0 1 1.144-.677q.65-.3 1.353-.545a9.436 9.436 0 0 1-.34 1.614zm21.41-10.02a10.086 10.086 0 0 1-.485 1.275 4.345 4.345 0 0 1-.632 1.01 2.82 2.82 0 0 1-.8.66 2 2 0 0 1-.966.238.934.934 0 0 1-.52-.132.993.993 0 0 1-.324-.35 1.65 1.65 0 0 1-.176-.5 3.244 3.244 0 0 1-.052-.6 4.063 4.063 0 0 1 .105-.915L122.11 9h-5.184l-2.444 11.55q-.14.684-.21 1.273a9.383 9.383 0 0 0-.07 1.082 5.652 5.652 0 0 0 .3 1.95 3.7 3.7 0 0 0 .816 1.337 3.156 3.156 0 0 0 1.222.773 4.54 4.54 0 0 0 1.512.246 7.2 7.2 0 0 0 1.22-.113 4.54 4.54 0 0 0 1.355-.483 6.664 6.664 0 0 0 1.406-1.038 8.308 8.308 0 0 0 1.38-1.775 4.073 4.073 0 0 0 1.1 2.523 3.325 3.325 0 0 0 2.434.888 4.893 4.893 0 0 0 1.433-.21 3.464 3.464 0 0 0 1.24-.668 3.59 3.59 0 0 0 .9-1.15 4.378 4.378 0 0 0 .42-1.68 2.242 2.242 0 0 0-.227.08 1.778 1.778 0 0 1-.237.078 1.826 1.826 0 0 1-.3.053 4.182 4.182 0 0 1-.43.018 1.768 1.768 0 0 1-1.117-.29 1.28 1.28 0 0 1-.362-1.045 4.648 4.648 0 0 1 .036-.572 3.542 3.542 0 0 1 .123-.588L131.01 9h-5.185z"/></svg>