<?xml version="1.0" encoding="utf-8"?>
<!-- Generator: Adobe Illustrator 17.1.0, SVG Export Plug-In . SVG Version: 6.00 Build 0)  -->
<!DOCTYPE svg PUBLIC "-//W3C//DTD SVG 1.1//EN" "http://www.w3.org/Graphics/SVG/1.1/DTD/svg11.dtd">
<svg version="1.1" id="Слой_1" xmlns="http://www.w3.org/2000/svg" xmlns:xlink="http://www.w3.org/1999/xlink" x="0px" y="0px"
	 viewBox="0 0 50 50" enable-background="new 0 0 50 50" xml:space="preserve">
<path fill="#6A6967" d="M28,44c0,1.7-1.3,3-3,3H9c-1.7,0-3-1.3-3-3V6c0-1.7,1.3-3,3-3h12V2h3v1h1c1.7,0,3,1.3,3,3V44z"/>
<g>
	<line fill="#6A6967" x1="15.1" y1="6.5" x2="19" y2="6.5"/>
	<path fill="#7C7D7C" d="M19,7h-3.9c-0.3,0-0.5-0.2-0.5-0.5S14.8,6,15.1,6H19c0.3,0,0.5,0.2,0.5,0.5S19.3,7,19,7z"/>
</g>
<g>
	<line fill="#6A6967" x1="16.1" y1="4.5" x2="18" y2="4.5"/>
	<path fill="#7C7D7C" d="M18,5h-1.9c-0.3,0-0.5-0.2-0.5-0.5S15.8,4,16.1,4H18c0.3,0,0.5,0.2,0.5,0.5S18.3,5,18,5z"/>
</g>
<g>
	<circle fill="#414142" cx="17" cy="44.1" r="1"/>
	<path fill="#727272" d="M17,43.1c0.6,0,1,0.4,1,1s-0.4,1-1,1s-1-0.4-1-1S16.4,43.1,17,43.1 M17,42.6c-0.8,0-1.5,0.7-1.5,1.5
		s0.7,1.5,1.5,1.5s1.5-0.7,1.5-1.5S17.8,42.6,17,42.6L17,42.6z"/>
</g>
<rect x="7" y="8" fill="#A8D6EB" width="20" height="33"/>
<polygon fill="#BBE3F5" points="27,41 7,8 27,8 "/>
<path fill="#C6D557" d="M31,37c-0.4,0-0.7-0.2-0.9-0.6c-0.2-0.5,0-1.1,0.5-1.3C30.8,35,37,32,37,24s-6.2-11-6.4-11.1
	c-0.5-0.2-0.7-0.8-0.5-1.3c0.2-0.5,0.8-0.7,1.3-0.5C31.7,11.2,39,14.7,39,24c0,9.3-7.3,12.8-7.6,12.9C31.3,37,31.1,37,31,37z"/>
<path fill="#C6D557" d="M34,41c-0.4,0-0.7-0.2-0.9-0.6c-0.2-0.5,0-1.1,0.5-1.3C33.9,38.9,42,35,42,24c0-11-8.1-14.9-8.4-15.1
	c-0.5-0.2-0.7-0.8-0.5-1.3c0.2-0.5,0.8-0.7,1.3-0.5C34.8,7.3,44,11.7,44,24c0,12.3-9.2,16.7-9.6,16.9C34.3,41,34.1,41,34,41z"/>
</svg>
