<?xml version="1.0" encoding="utf-8"?>
<!-- Generator: Adobe Illustrator 17.1.0, SVG Export Plug-In . SVG Version: 6.00 Build 0)  -->
<!DOCTYPE svg PUBLIC "-//W3C//DTD SVG 1.1//EN" "http://www.w3.org/Graphics/SVG/1.1/DTD/svg11.dtd">
<svg version="1.1" id="Слой_1" xmlns="http://www.w3.org/2000/svg" xmlns:xlink="http://www.w3.org/1999/xlink" x="0px" y="0px"
	 viewBox="0 0 255.1 141.7" enable-background="new 0 0 255.1 141.7" xml:space="preserve">
<path fill="#E4C59A" d="M133.2,139.5c-2,0.6-4,2.3-5.7,2.3C107.7,141.7,85,116.2,85,85s19-56.7,42.5-56.7c2,0,3.7,0.3,5.7,0.6V139.5
	z"/>
<path fill="#FADBB0" d="M127.6,141.7c19.8,0,42.5-25.5,42.5-56.7s-19-56.7-42.5-56.7V68c0,0-4.3,19.8-8.5,25.5c0,0-2.8,5.7,2.8,5.7
	c5.7,0,5.7,0,5.7,0V141.7z"/>
<g>
	<circle fill="#616D6F" cx="110.6" cy="75.1" r="2.8"/>
	<circle fill="#616D6F" cx="144.6" cy="75.1" r="2.8"/>
</g>
<path fill="#050606" d="M141.7,109.1c0,6.2-6.2,11.3-14.2,11.3s-14.2-5.1-14.2-11.3H141.7z"/>
<path d="M169.2,65.5l-8.2-0.3c-3.1-2.8-7.7-2.8-13.6-2.8c-0.3,0-0.6,0-0.9,0c-9.4,0-13,0-14.7,2.8h-8.2c-1.7-2.8-5.7-2.8-14.7-2.8
	c-0.3,0-0.6,0-0.9,0c-6,0-10.5,0-13.6,2.8h-8.5v5.7h5.7c-0.3,1.7-0.6,3.4-0.6,5.7c0,8.5,5.7,14.2,17,14.2c8.5,0,17-8.5,17-14.2
	c0-2.3,0-4,0-5.7h5.4c0,1.7,0,3.4,0,5.7c0,5.7,8.5,14.2,17,14.2c11.3,0,17-5.7,17-14.2c0-2.3-0.3-4-0.6-5.7h5.4V65.5z M117.4,83.6
	c-2.8,2.6-6.5,4.3-9.6,4.3c-6.5,0-14.2-2-14.2-11.3c0-11.3,4.3-11.3,14.2-11.3h0.9c6,0,10.8,0,12.2,1.1c1.1,0.9,1.1,4.8,1.1,10.2
	C121.9,78.2,120.5,81.1,117.4,83.6z M147.4,87.9c-3.1,0-6.8-1.7-9.6-4.3c-3.1-2.6-4.5-5.4-4.5-7.1c0-5.4,0-9.4,1.1-10.2
	c1.1-1.1,6.2-1.1,12.2-1.1h0.9c9.9,0,14.2,0,14.2,11.3C161.6,85.9,153.9,87.9,147.4,87.9z"/>
<path fill="#904F3A" d="M85.3,79.7c5.7-56.7,78.8-57,84.8,0V42.3l-5.7-6.1c0,0,0.3-7.1-12.4-21.9l-7.4-2.8c0,0-2.8,5.7-5.7,0
	l-0.3-3.8c-1.1-2.6-2.8,0.7-14.2,0.7S90.7,20.1,90.7,39.7c0,6.5-5.7,0-5.7,0L85.3,79.7z"/>
<path fill="#EAD96D" d="M83.7,54.4c43.3,6.3,88.2-0.5,88.2-0.5S175,3.7,127.3,3.7S83.7,54.4,83.7,54.4z"/>
<path fill="#F2E4A0" d="M127.3,3.7c47.7,0,44.3,50.3,44.3,50.3s-19,2.8-44.3,3.1L127.3,3.7z"/>
<path fill="#D8BB44" d="M124.5,56.7l-5.2-54.3c0,0,8.7-3.9,17.7,0l-5.1,54.3"/>
<path fill="#D8BB44" d="M127.6,61.2c-25,0-43.8-3.3-45-3.5c-2.2-0.4-3.6-2.5-3.2-4.6c0.4-2.2,2.5-3.6,4.6-3.2
	c0.4,0.1,44.5,7.8,86.9-0.5c2.2-0.4,4.3,1,4.7,3.2c0.4,2.2-1,4.3-3.2,4.7C156.9,60.2,141.3,61.2,127.6,61.2z"/>
</svg>
