<?xml version="1.0" encoding="utf-8"?>
<!-- Generator: Adobe Illustrator 17.0.0, SVG Export Plug-In . SVG Version: 6.00 Build 0)  -->
<!DOCTYPE svg PUBLIC "-//W3C//DTD SVG 1.1//EN" "http://www.w3.org/Graphics/SVG/1.1/DTD/svg11.dtd">
<svg version="1.1" id="Слой_1" xmlns="http://www.w3.org/2000/svg" xmlns:xlink="http://www.w3.org/1999/xlink" x="0px" y="0px"
	 width="50px" height="50px" viewBox="0 0 50 50" enable-background="new 0 0 50 50" xml:space="preserve">
<g id="WyO1PW_1_" display="none">
	
		<image display="inline" overflow="visible" enable-background="new    " width="51" height="45" id="WyO1PW_2_" xlink:href="91E6299AC7F842B5.jpeg"  transform="matrix(0.9804 0 0 1 -0.0327 2)">
	</image>
</g>
<path fill="#C77C96" d="M19,20H0v5c0,1.1,0.9,2,2,2l7,20h32l7-20l0,0c0.4,0,0.7-0.1,1-0.3L19,20z"/>
<path fill="#D89AB2" d="M48,27L48,27c1.1,0,2-0.9,2-2v-5H17L48,27z"/>
<polygon fill="#86576E" points="2.7,29 2,27 48,27 47.3,29 "/>
<g>
	<path fill="#D89AB2" d="M11,30c-0.6,0-1,0.4-1,1v4c0,0.6,0.4,1,1,1s1-0.4,1-1v-4C12,30.4,11.6,30,11,30z"/>
	<path fill="#D89AB2" d="M15,30c-0.6,0-1,0.4-1,1v4c0,0.6,0.4,1,1,1s1-0.4,1-1v-4C16,30.4,15.6,30,15,30z"/>
	<path fill="#D89AB2" d="M19,30c-0.6,0-1,0.4-1,1v4c0,0.6,0.4,1,1,1s1-0.4,1-1v-4C20,30.4,19.6,30,19,30z"/>
	<path fill="#D89AB2" d="M23,30c-0.6,0-1,0.4-1,1v4c0,0.6,0.4,1,1,1s1-0.4,1-1v-4C24,30.4,23.6,30,23,30z"/>
	<path fill="#D89AB2" d="M27,30c-0.6,0-1,0.4-1,1v4c0,0.6,0.4,1,1,1s1-0.4,1-1v-4C28,30.4,27.6,30,27,30z"/>
	<path fill="#D89AB2" d="M31,30c-0.6,0-1,0.4-1,1v4c0,0.6,0.4,1,1,1s1-0.4,1-1v-4C32,30.4,31.6,30,31,30z"/>
	<path fill="#D89AB2" d="M35,30c-0.6,0-1,0.4-1,1v4c0,0.6,0.4,1,1,1s1-0.4,1-1v-4C36,30.4,35.6,30,35,30z"/>
	<path fill="#D89AB2" d="M39,30c-0.6,0-1,0.4-1,1v4c0,0.6,0.4,1,1,1s1-0.4,1-1v-4C40,30.4,39.6,30,39,30z"/>
	<path fill="#D89AB2" d="M39,38c-0.6,0-1,0.4-1,1v4c0,0.6,0.4,1,1,1s1-0.4,1-1v-4C40,38.4,39.6,38,39,38z"/>
	<path fill="#D89AB2" d="M35,38c-0.6,0-1,0.4-1,1v4c0,0.6,0.4,1,1,1s1-0.4,1-1v-4C36,38.4,35.6,38,35,38z"/>
	<path fill="#D89AB2" d="M31,38c-0.6,0-1,0.4-1,1v4c0,0.6,0.4,1,1,1s1-0.4,1-1v-4C32,38.4,31.6,38,31,38z"/>
	<path fill="#D89AB2" d="M27,38c-0.6,0-1,0.4-1,1v4c0,0.6,0.4,1,1,1s1-0.4,1-1v-4C28,38.4,27.6,38,27,38z"/>
	<path fill="#D89AB2" d="M23,38c-0.6,0-1,0.4-1,1v4c0,0.6,0.4,1,1,1s1-0.4,1-1v-4C24,38.4,23.6,38,23,38z"/>
	<path fill="#D89AB2" d="M19,38c-0.6,0-1,0.4-1,1v4c0,0.6,0.4,1,1,1s1-0.4,1-1v-4C20,38.4,19.6,38,19,38z"/>
	<path fill="#D89AB2" d="M15,38c-0.6,0-1,0.4-1,1v4c0,0.6,0.4,1,1,1s1-0.4,1-1v-4C16,38.4,15.6,38,15,38z"/>
	<path fill="#D89AB2" d="M11,38c-0.6,0-1,0.4-1,1v4c0,0.6,0.4,1,1,1s1-0.4,1-1v-4C12,38.4,11.6,38,11,38z"/>
</g>
<path fill="#B0B0B0" d="M26.8,24.3c-0.6,1-1.8,1.3-2.7,0.7l-1.7-1c-1-0.6-1.3-1.8-0.7-2.7L31.6,4c0.6-1,1.8-1.3,2.7-0.7l1.7,1
	C37,4.8,37.3,6,36.8,7L26.8,24.3z"/>
<circle fill="#FFFFFF" cx="25" cy="22" r="1"/>
</svg>
