<svg xmlns="http://www.w3.org/2000/svg" width="50" height="50" viewBox="6 2 38 45"><path fill="#6A6967" d="M28 44c0 1.7-1.3 3-3 3h-16c-1.7 0-3-1.3-3-3v-38c0-1.7 1.3-3 3-3h12v-1h3v1h1c1.7 0 3 1.3 3 3v38z"/><line x1="15.1" y1="6.5" x2="19" y2="6.5" fill="none"/><path fill="#7C7D7C" d="M19 7h-3.9c-.3 0-.5-.2-.5-.5s.2-.5.5-.5h3.9c.3 0 .5.2.5.5s-.2.5-.5.5z"/><line x1="16.1" y1="4.5" x2="18" y2="4.5" fill="none"/><path fill="#7C7D7C" d="M18 5h-1.9c-.3 0-.5-.2-.5-.5s.2-.5.5-.5h1.9c.3 0 .5.2.5.5s-.2.5-.5.5z"/><circle fill="#414142" cx="17" cy="44.1" r="1"/><path fill="#727272" d="M17 43.1c.6 0 1 .4 1 1s-.4 1-1 1-1-.4-1-1 .4-1 1-1m0-.5c-.8 0-1.5.7-1.5 1.5s.7 1.5 1.5 1.5 1.5-.7 1.5-1.5-.7-1.5-1.5-1.5z"/><rect x="7" y="8" fill="#85C7E1" width="20" height="33"/><polygon fill="#B3E3F2" points="27,41 7,8 27,8"/><path fill="#C1D64A" d="M31 37c-.4 0-.7-.2-.9-.6-.2-.5 0-1.1.5-1.3.2-.1 6.4-3.1 6.4-11.1s-6.2-11-6.4-11.1c-.5-.2-.7-.8-.5-1.3s.8-.7 1.3-.5c.3.1 7.6 3.6 7.6 12.9s-7.3 12.8-7.6 12.9c-.1.1-.3.1-.4.1z"/><path fill="#C1D64A" d="M34 41c-.4 0-.7-.2-.9-.6-.2-.5 0-1.1.5-1.3.3-.2 8.4-4.1 8.4-15.1s-8.1-14.9-8.4-15.1c-.5-.2-.7-.8-.5-1.3s.8-.7 1.3-.5c.4.2 9.6 4.6 9.6 16.9s-9.2 16.7-9.6 16.9c-.1.1-.3.1-.4.1z"/></svg>